<?xml version="1.0" encoding="UTF-8" standalone="no"?>
<!DOCTYPE svg PUBLIC "-//W3C//DTD SVG 1.1//EN" "http://www.w3.org/Graphics/SVG/1.1/DTD/svg11.dtd">
<svg xmlns="http://www.w3.org/2000/svg" version="1.1" viewBox="0.00 0.00 1792.00 1170.00">
<path fill="#1b5b68" d="
  M 446.28 542.75
  C 446.18 562.03 446.01 581.30 445.87 600.58
  C 445.83 606.68 445.24 610.91 439.48 613.21
  C 431.90 616.23 427.80 610.78 427.78 603.56
  Q 427.71 575.78 427.74 548.00
  C 427.75 540.85 424.14 536.23 416.50 536.23
  Q 373.25 536.19 330.00 536.42
  C 317.02 536.48 317.63 544.29 317.62 554.96
  Q 317.61 570.43 318.07 585.88
  C 318.59 603.09 318.46 619.30 318.42 635.99
  Q 318.40 646.57 328.88 646.53
  Q 370.52 646.36 412.16 646.14
  Q 424.79 646.08 429.68 647.62
  Q 441.06 651.22 444.71 662.79
  Q 446.19 667.50 446.19 678.12
  Q 446.19 727.31 446.11 776.50
  C 446.10 782.86 447.39 788.73 453.33 791.27
  Q 456.14 792.47 464.54 792.47
  Q 577.38 792.51 690.21 792.47
  C 700.55 792.47 704.26 789.76 704.28 779.45
  C 704.48 656.12 704.36 532.78 704.49 409.45
  C 704.49 401.81 705.39 391.98 696.82 388.31
  Q 694.09 387.14 687.50 387.19
  Q 669.24 387.33 650.98 386.69
  C 633.93 386.10 617.83 386.27 601.25 386.29
  C 594.06 386.29 584.82 387.09 576.91 387.11
  Q 538.07 387.21 499.23 387.15
  Q 494.75 387.15 491.92 385.93
  C 482.00 381.65 477.68 370.33 477.66 360.06
  Q 477.63 341.53 477.68 323.00
  C 477.71 311.35 466.26 311.58 458.00 311.78
  Q 441.49 312.18 425.00 312.85
  C 417.55 313.15 415.95 318.96 415.94 325.25
  Q 415.93 340.00 415.98 354.75
  C 416.02 365.72 419.14 371.72 431.01 371.77
  Q 440.22 371.81 449.43 371.93
  C 458.81 372.05 460.79 385.71 450.23 385.68
  Q 435.46 385.65 420.71 385.70
  C 414.23 385.73 407.51 377.55 404.87 372.38
  Q 403.77 370.23 403.76 367.38
  Q 403.73 342.39 403.76 317.41
  Q 403.77 312.31 405.05 309.31
  C 407.33 303.95 413.32 297.72 419.75 297.64
  Q 441.71 297.37 463.67 297.54
  Q 474.34 297.62 478.18 299.03
  C 487.72 302.54 492.71 313.04 492.72 322.99
  Q 492.74 340.07 492.74 357.14
  C 492.75 367.34 495.09 371.73 505.59 371.73
  Q 599.93 371.75 694.26 371.72
  Q 702.12 371.71 706.10 373.09
  C 719.52 377.74 722.55 391.09 722.57 404.00
  Q 722.73 592.75 722.74 781.50
  Q 722.74 784.40 721.18 788.75
  C 715.68 804.09 703.04 810.78 687.25 810.77
  Q 574.88 810.71 462.50 810.88
  C 439.51 810.92 427.84 794.75 427.80 772.71
  Q 427.73 725.17 427.74 677.63
  Q 427.74 671.66 426.30 669.13
  Q 423.76 664.71 417.75 664.71
  C 399.75 664.70 381.93 664.92 363.75 664.39
  Q 343.13 663.79 322.50 663.74
  C 309.06 663.71 299.94 653.95 299.91 640.75
  C 299.86 618.19 300.15 595.56 299.50 573.01
  Q 298.81 549.54 299.30 538.75
  C 299.87 525.93 310.02 517.66 322.50 517.76
  Q 366.43 518.13 410.37 517.89
  Q 417.68 517.85 425.00 518.11
  C 434.33 518.45 443.23 524.43 445.39 533.76
  Q 446.31 537.71 446.28 542.75
  Z"
/>
<path fill="#1b5b68" d="
  M 240.05 402.08
  C 228.63 403.19 216.38 399.63 211.61 388.12
  Q 210.17 384.64 210.00 377.65
  Q 209.77 368.08 209.49 358.49
  Q 209.12 345.97 210.52 341.63
  C 213.92 331.13 224.41 326.71 235.48 326.76
  Q 246.08 326.80 256.65 325.99
  C 260.05 325.73 264.33 326.13 267.51 327.26
  Q 282.87 332.76 283.49 349.76
  C 283.81 358.35 283.90 366.99 284.46 375.56
  C 285.12 385.47 279.98 395.12 270.85 399.15
  Q 267.71 400.54 262.42 400.73
  Q 255.70 400.98 248.99 401.23
  Q 248.61 401.24 240.05 402.08
  Z
  M 268.7023 354.9016
  A 11.20 11.20 0.0 0 0 257.6994 343.5079
  L 236.5426 343.1386
  A 11.20 11.20 0.0 0 0 225.1489 354.1414
  L 224.7977 374.2584
  A 11.20 11.20 0.0 0 0 235.8006 385.6521
  L 256.9574 386.0214
  A 11.20 11.20 0.0 0 0 268.3511 375.0186
  L 268.7023 354.9016
  Z"
/>
<path fill="#1b5b68" d="
  M 809.57 611.47
  L 809.57 809.99
  Q 809.57 810.54 809.01 810.54
  L 762.02 810.54
  A 0.41 0.40 -0.0 0 1 761.61 810.14
  Q 761.59 609.75 761.42 409.25
  C 761.41 391.10 772.80 374.86 790.59 370.07
  Q 795.21 368.83 805.51 368.80
  Q 826.25 368.73 847.00 368.75
  C 864.70 368.77 880.08 380.90 884.65 397.62
  Q 886.07 402.81 886.07 413.51
  Q 886.07 611.74 886.07 809.97
  Q 886.07 810.54 885.50 810.54
  L 838.55 810.54
  Q 838.06 810.54 838.06 810.05
  L 838.06 611.28
  Q 838.06 610.75 837.53 610.75
  L 810.28 610.75
  Q 809.57 610.75 809.57 611.47
  Z
  M 838.06 412.17
  A 0.37 0.37 0.0 0 0 837.69 411.80
  L 809.93 411.80
  A 0.37 0.37 0.0 0 0 809.56 412.17
  L 809.56 566.87
  A 0.37 0.37 0.0 0 0 809.93 567.24
  L 837.69 567.24
  A 0.37 0.37 0.0 0 0 838.06 566.87
  L 838.06 412.17
  Z"
/>
<path fill="#1b5b68" d="
  M 970.86 610.76
  A 0.23 0.23 0.0 0 0 970.63 610.99
  L 970.63 810.15
  A 0.40 0.39 -0.0 0 1 970.23 810.54
  L 923.03 810.54
  A 0.39 0.39 0.0 0 1 922.64 810.15
  L 922.64 369.00
  A 0.22 0.22 0.0 0 1 922.86 368.78
  Q 965.25 368.77 1007.75 368.78
  C 1024.94 368.79 1041.05 380.99 1045.61 397.39
  Q 1047.15 402.90 1047.14 417.24
  Q 1047.13 496.00 1047.13 574.75
  C 1047.13 590.82 1035.81 604.86 1020.56 609.20
  Q 1015.23 610.72 1002.30 610.73
  Q 986.56 610.75 970.86 610.76
  Z
  M 999.13 412.08
  A 0.28 0.28 0.0 0 0 998.85 411.80
  L 970.91 411.80
  A 0.28 0.28 0.0 0 0 970.63 412.08
  L 970.63 566.96
  A 0.28 0.28 0.0 0 0 970.91 567.24
  L 998.85 567.24
  A 0.28 0.28 0.0 0 0 999.13 566.96
  L 999.13 412.08
  Z"
/>
<path fill="#1b5b68" d="
  M 1128.82 611.46
  L 1128.83 809.98
  Q 1128.83 810.54 1128.27 810.54
  L 1081.32 810.54
  A 0.47 0.47 0.0 0 1 1080.85 810.07
  L 1080.86 369.00
  Q 1080.86 368.78 1081.08 368.78
  Q 1123.62 368.77 1166.25 368.78
  C 1187.80 368.79 1205.24 386.92 1205.26 408.50
  Q 1205.31 492.63 1205.31 576.75
  Q 1205.31 581.30 1203.22 586.76
  C 1197.55 601.62 1183.29 610.91 1167.50 610.78
  Q 1148.49 610.64 1129.48 610.80
  Q 1128.82 610.81 1128.82 611.46
  Z
  M 1157.33 412.10
  A 0.30 0.30 0.0 0 0 1157.03 411.80
  L 1129.13 411.80
  A 0.30 0.30 0.0 0 0 1128.83 412.10
  L 1128.83 566.94
  A 0.30 0.30 0.0 0 0 1129.13 567.24
  L 1157.03 567.24
  A 0.30 0.30 0.0 0 0 1157.33 566.94
  L 1157.33 412.10
  Z"
/>
<rect fill="#1b5b68" x="1240.47" y="368.78" width="48.54" height="441.76" rx="0.41"/>
<path fill="#1b5b68" d="
  M 1375.12 611.09
  L 1375.13 810.20
  A 0.34 0.34 0.0 0 1 1374.79 810.54
  L 1327.43 810.54
  A 0.34 0.34 0.0 0 1 1327.09 810.20
  L 1327.09 369.12
  A 0.34 0.34 0.0 0 1 1327.43 368.78
  L 1427.56 368.78
  A 0.34 0.34 0.0 0 1 1427.90 369.12
  L 1427.92 411.49
  A 0.34 0.34 0.0 0 1 1427.58 411.83
  L 1375.46 411.82
  A 0.34 0.34 0.0 0 0 1375.12 412.16
  L 1375.13 566.89
  A 0.34 0.34 0.0 0 0 1375.47 567.23
  L 1419.05 567.23
  A 0.34 0.34 0.0 0 1 1419.39 567.57
  L 1419.40 610.41
  A 0.34 0.34 0.0 0 1 1419.06 610.75
  L 1375.46 610.75
  A 0.34 0.34 0.0 0 0 1375.12 611.09
  Z"
/>
<path fill="#1b5b68" d="
  M 1491.77 673.95
  C 1474.81 671.92 1459.31 661.16 1454.93 644.39
  Q 1453.55 639.08 1453.54 624.50
  Q 1453.54 496.73 1453.53 369.01
  A 0.24 0.23 0.0 0 1 1453.77 368.78
  L 1501.28 368.78
  Q 1501.53 368.78 1501.53 369.03
  L 1501.53 630.77
  A 0.24 0.23 -0.0 0 0 1501.77 631.00
  L 1531.47 630.99
  A 0.37 0.37 0.0 0 0 1531.84 630.62
  L 1531.84 368.97
  Q 1531.84 368.78 1532.03 368.78
  L 1579.50 368.78
  A 0.31 0.31 0.0 0 1 1579.81 369.09
  Q 1579.83 498.26 1579.80 627.49
  Q 1579.80 639.57 1578.31 644.88
  C 1573.69 661.29 1558.27 672.19 1541.53 673.92
  Q 1541.00 673.97 1541.00 674.51
  L 1541.00 810.27
  A 0.27 0.27 0.0 0 1 1540.73 810.54
  L 1493.00 810.54
  A 0.55 0.54 -0.0 0 1 1492.45 810.00
  L 1492.44 674.71
  Q 1492.44 674.03 1491.77 673.95
  Z"
/>
<path fill="#1b5b68" d="
  M 388.6175 462.1331
  A 25.00 25.00 0.0 0 1 363.3139 486.8258
  L 329.1165 486.4079
  A 25.00 25.00 0.0 0 1 304.4237 461.1044
  L 304.8425 426.8269
  A 25.00 25.00 0.0 0 1 330.1461 402.1342
  L 364.3435 402.5521
  A 25.00 25.00 0.0 0 1 389.0363 427.8556
  L 388.6175 462.1331
  Z
  M 371.6053 432.1203
  A 13.04 13.04 0.0 0 0 358.3397 419.3099
  L 333.8235 419.7378
  A 13.04 13.04 0.0 0 0 321.0130 433.0034
  L 321.4347 457.1597
  A 13.04 13.04 0.0 0 0 334.7003 469.9701
  L 359.2165 469.5422
  A 13.04 13.04 0.0 0 0 372.0270 456.2766
  L 371.6053 432.1203
  Z"
/>
<path fill="#1b5b68" d="
  M 676.55 442.69
  L 676.15 666.05
  A 24.84 24.84 0.0 0 1 651.28 690.85
  L 498.62 690.65
  A 24.84 24.84 0.0 0 1 473.81 665.77
  L 474.21 442.37
  A 24.84 24.84 0.0 0 1 499.08 417.58
  L 651.74 417.80
  A 24.84 24.84 0.0 0 1 676.55 442.69
  Z
  M 657.7999 444.8658
  A 9.03 9.03 0.0 0 0 648.7542 435.8516
  L 501.3944 436.1088
  A 9.03 9.03 0.0 0 0 492.3802 445.1545
  L 492.7601 662.7942
  A 9.03 9.03 0.0 0 0 501.8058 671.8084
  L 649.1656 671.5512
  A 9.03 9.03 0.0 0 0 658.1798 662.5055
  L 657.7999 444.8658
  Z"
/>
<path fill="#1b5b68" d="
  M 614.4429 753.1958
  A 25.68 25.68 0.0 0 1 588.6288 778.7410
  L 561.3091 778.5980
  A 25.68 25.68 0.0 0 1 535.7639 752.7838
  L 535.8971 727.3442
  A 25.68 25.68 0.0 0 1 561.7112 701.7990
  L 589.0309 701.9420
  A 25.68 25.68 0.0 0 1 614.5761 727.7562
  L 614.4429 753.1958
  Z
  M 596.1341 733.4105
  A 12.77 12.77 0.0 0 0 583.2974 720.7075
  L 566.9776 720.7930
  A 12.77 12.77 0.0 0 0 554.2746 733.6297
  L 554.3459 747.2495
  A 12.77 12.77 0.0 0 0 567.1826 759.9525
  L 583.5024 759.8670
  A 12.77 12.77 0.0 0 0 596.2054 747.0303
  L 596.1341 733.4105
  Z"
/>
</svg>
