<svg id="Layer_2" data-name="Layer 2" xmlns="http://www.w3.org/2000/svg" viewBox="0 0 1635.58 1115.29" fill="white">
    <defs>
      <style>
        .cls-1 {
          fill-rule: evenodd;
        }
      </style>
    </defs>
    <g id="Layer_1-2" data-name="Layer 1">
      <g>
        <path d="m83,935.19h23v140h-23v-60.6H23v60.6H0v-140h23v57.4h60v-57.4Z"/>
        <path d="m200,975.19h23l-38.4,103.2c-9.6,25.87-25.87,38.13-48.8,36.8v-20.2c6.8.4,12.27-1.03,16.4-4.3,4.13-3.27,7.53-8.37,10.2-15.3l1-2-42.4-98.2h23.6l29.82,72.59,25.58-72.59Z"/>
        <path d="m293.2,972.59c13.73,0,25.47,5.1,35.2,15.3,9.73,10.2,14.6,22.63,14.6,37.3s-4.87,27.27-14.6,37.4c-9.73,10.13-21.47,15.2-35.2,15.2-15.2,0-26.87-5.6-35-16.8v54.2h-21.6v-140h21.6v14.4c8.13-11.33,19.8-17,35-17Zm-26,75.5c6,6.07,13.53,9.1,22.6,9.1s16.6-3.03,22.6-9.1c6-6.07,9-13.7,9-22.9s-3-16.83-9-22.9c-6-6.07-13.54-9.1-22.6-9.1s-16.6,3.03-22.6,9.1c-6,6.07-9,13.7-9,22.9s3,16.83,9,22.9Z"/>
        <path d="m379.6,1034.39c1.6,7.6,5.27,13.43,11,17.5,5.73,4.07,12.73,6.1,21,6.1,11.47,0,20.07-4.13,25.8-12.4l17.8,10.4c-9.87,14.53-24.47,21.8-43.8,21.8-16.27,0-29.4-4.96-39.4-14.9-10-9.93-15-22.5-15-37.7s4.93-27.43,14.8-37.5c9.87-10.07,22.53-15.1,38-15.1,14.67,0,26.7,5.13,36.1,15.4,9.4,10.27,14.1,22.73,14.1,37.4,0,2.27-.27,5.27-.8,9h-79.6Zm-.2-17.6h58.8c-1.47-8.13-4.83-14.27-10.1-18.4-5.27-4.13-11.43-6.2-18.5-6.2-8,0-14.67,2.2-20,6.6-5.33,4.4-8.73,10.4-10.2,18Z"/>
        <path d="m500.59,991.99c5.47-12.4,15.73-18.6,30.8-18.6v23.4c-8.27-.53-15.47,1.43-21.6,5.9-6.13,4.47-9.2,11.83-9.2,22.1v50.4h-21.6v-100h21.6v16.8Z"/>
        <path d="m589.99,1077.79c-15.07,0-27.63-5.07-37.7-15.2-10.07-10.13-15.1-22.6-15.1-37.4s5.03-27.43,15.1-37.5c10.07-10.07,22.63-15.1,37.7-15.1,9.73,0,18.6,2.33,26.6,7,8,4.67,14,10.93,18,18.8l-18.6,10.8c-2.27-4.8-5.7-8.57-10.3-11.3-4.6-2.73-9.9-4.1-15.9-4.1-8.8,0-16.17,3-22.1,9-5.93,6-8.9,13.47-8.9,22.4s2.97,16.4,8.9,22.4c5.93,6,13.3,9,22.1,9,5.87,0,11.17-1.4,15.9-4.2,4.73-2.8,8.3-6.53,10.7-11.2l18.6,10.6c-4.27,8-10.4,14.33-18.4,19-8,4.67-16.87,7-26.6,7Z"/>
        <path d="m665.99,1034.39c1.6,7.6,5.27,13.43,11,17.5,5.73,4.07,12.73,6.1,21,6.1,11.47,0,20.07-4.13,25.8-12.4l17.8,10.4c-9.87,14.53-24.47,21.8-43.8,21.8-16.27,0-29.4-4.96-39.4-14.9-10-9.93-15-22.5-15-37.7s4.93-27.43,14.8-37.5c9.87-10.07,22.53-15.1,38-15.1,14.67,0,26.7,5.13,36.1,15.4,9.4,10.27,14.1,22.73,14.1,37.4,0,2.27-.27,5.27-.8,9h-79.6Zm-.2-17.6h58.8c-1.47-8.13-4.83-14.27-10.1-18.4-5.27-4.13-11.43-6.2-18.5-6.2-8,0-14.67,2.2-20,6.6-5.33,4.4-8.73,10.4-10.2,18Z"/>
        <path d="m899.79,935.19h23v140h-23v-60.6h-60v60.6h-23v-140h23v57.4h60v-57.4Z"/>
        <path d="m966.39,1034.39c1.6,7.6,5.27,13.43,11,17.5,5.73,4.07,12.73,6.1,21,6.1,11.47,0,20.07-4.13,25.8-12.4l17.8,10.4c-9.87,14.53-24.47,21.8-43.8,21.8-16.27,0-29.4-4.96-39.4-14.9-10-9.93-15-22.5-15-37.7s4.93-27.43,14.8-37.5c9.87-10.07,22.53-15.1,38-15.1,14.67,0,26.7,5.13,36.1,15.4,9.4,10.27,14.1,22.73,14.1,37.4,0,2.27-.27,5.27-.8,9h-79.6Zm-.2-17.6h58.8c-1.47-8.13-4.83-14.27-10.1-18.4-5.27-4.13-11.43-6.2-18.5-6.2-8,0-14.67,2.2-20,6.6-5.33,4.4-8.73,10.4-10.2,18Z"/>
        <path d="m1144.39,975.19h21.6v100h-21.6v-14.4c-8.13,11.33-19.8,17-35,17-13.73,0-25.47-5.1-35.2-15.3-9.73-10.2-14.6-22.63-14.6-37.3s4.87-27.27,14.6-37.4c9.73-10.13,21.47-15.2,35.2-15.2,15.2,0,26.87,5.6,35,16.8v-14.2Zm-54.2,72.9c6,6.07,13.53,9.1,22.6,9.1s16.6-3.03,22.6-9.1c6-6.07,9-13.7,9-22.9s-3-16.83-9-22.9c-6-6.07-13.53-9.1-22.6-9.1s-16.6,3.03-22.6,9.1c-6,6.07-9,13.7-9,22.9s3,16.83,9,22.9Z"/>
        <path d="m1270.39,935.19h21.6v140h-21.6v-14.4c-8.13,11.33-19.8,17-35,17-13.73,0-25.47-5.1-35.2-15.3-9.73-10.2-14.6-22.63-14.6-37.3s4.87-27.27,14.6-37.4c9.73-10.13,21.47-15.2,35.2-15.2,15.2,0,26.87,5.6,35,16.8v-54.2Zm-54.2,112.9c6,6.07,13.53,9.1,22.6,9.1s16.6-3.03,22.6-9.1c6-6.07,9-13.7,9-22.9s-3-16.83-9-22.9c-6-6.07-13.53-9.1-22.6-9.1s-16.6,3.03-22.6,9.1c-6,6.07-9,13.7-9,22.9s3,16.83,9,22.9Z"/>
        <path d="m1317.19,1075.19v-146h21.6v146h-21.6Z"/>
        <path d="m1380.78,1034.39c1.6,7.6,5.27,13.43,11,17.5,5.73,4.07,12.73,6.1,21,6.1,11.47,0,20.07-4.13,25.8-12.4l17.8,10.4c-9.87,14.53-24.47,21.8-43.8,21.8-16.27,0-29.4-4.96-39.4-14.9-10-9.93-15-22.5-15-37.7s4.93-27.43,14.8-37.5c9.87-10.07,22.53-15.1,38-15.1,14.67,0,26.7,5.13,36.1,15.4,9.4,10.27,14.1,22.73,14.1,37.4,0,2.27-.27,5.27-.8,9h-79.6Zm-.2-17.6h58.8c-1.47-8.13-4.83-14.27-10.1-18.4-5.27-4.13-11.43-6.2-18.5-6.2-8,0-14.67,2.2-20,6.6-5.33,4.4-8.73,10.4-10.2,18Z"/>
        <path d="m1495.58,1002.66c0,3.29,1.85,5.89,5.54,7.8,3.69,1.91,8.13,3.66,13.3,5.25s10.47,3.23,15.9,4.9c5.43,1.67,9.96,4.77,13.6,9.28s5.46,10.22,5.46,17.1c0,9.6-3.7,17.13-11.1,22.6-7.4,5.47-16.7,8.2-27.9,8.2-9.87,0-18.33-2.07-25.4-6.2-7.07-4.13-12.2-9.87-15.4-17.2l18.6-10.8c3.47,9.6,10.87,14.4,22.2,14.4s17-3.73,17-11.2c0-3.2-1.83-5.8-5.5-7.8-3.67-2-8.09-3.8-13.26-5.39s-10.47-3.23-15.9-4.9c-5.43-1.67-9.97-4.67-13.64-9.01-3.67-4.33-5.5-9.83-5.5-16.5,0-9.2,3.5-16.6,10.5-22.2,7-5.6,15.7-8.4,26.1-8.4,8.27,0,15.63,1.83,22.1,5.5,6.47,3.67,11.43,8.77,14.9,15.3l-18.2,10.2c-3.47-7.6-9.73-11.4-18.8-11.4-4.13,0-7.6.89-10.4,2.67-2.8,1.78-4.2,4.38-4.2,7.8Z"/>
        <path d="m1581.78,1002.66c0,3.29,1.85,5.89,5.54,7.8,3.69,1.91,8.13,3.66,13.3,5.25s10.47,3.23,15.9,4.9c5.43,1.67,9.96,4.77,13.6,9.28s5.46,10.22,5.46,17.1c0,9.6-3.7,17.13-11.1,22.6-7.4,5.47-16.7,8.2-27.9,8.2-9.87,0-18.33-2.07-25.4-6.2-7.07-4.13-12.2-9.87-15.4-17.2l18.6-10.8c3.47,9.6,10.87,14.4,22.2,14.4s17-3.73,17-11.2c0-3.2-1.83-5.8-5.5-7.8-3.67-2-8.09-3.8-13.26-5.39s-10.47-3.23-15.9-4.9c-5.43-1.67-9.97-4.67-13.64-9.01-3.67-4.33-5.5-9.83-5.5-16.5,0-9.2,3.5-16.6,10.5-22.2,7-5.6,15.7-8.4,26.1-8.4,8.27,0,15.63,1.83,22.1,5.5,6.47,3.67,11.43,8.77,14.9,15.3l-18.2,10.2c-3.47-7.6-9.73-11.4-18.8-11.4-4.13,0-7.6.89-10.4,2.67-2.8,1.78-4.2,4.38-4.2,7.8Z"/>
      </g>
      <g>
        <polyline class="cls-1" points="777.16 863 777.16 384.13 638.91 384.13 638.91 599.75 541.46 532.22 541.46 137.31 638.91 137.31 638.91 286.69 777.16 286.69 777.16 0 403.22 0 403.22 603.83"/>
        <polyline class="cls-1" points="853.22 863.48 853.22 384.41 990.58 384.41 990.58 600.12 1087.4 532.55 1087.4 137.48 990.58 137.48 990.58 286.92 853.22 286.92 853.22 .11 1224.77 .11 1224.77 604.2"/>
      </g>
    </g>
  </svg>