<svg width="123" height="43" viewBox="0 0 123 43" fill="none" xmlns="http://www.w3.org/2000/svg">
    <g clipPath="url(#clip0_9_5987)">
        <path d="M122.028 35.4925L122.049 35.4851L121.87 35.5308L122.028 35.4925Z" fill="#ffffff" />
        <path
            d="M120.879 35.7322C120.992 35.7307 121.294 35.642 121.501 35.6065L121.535 35.6031L121.625 35.5712C121.376 35.6234 121.055 35.7019 120.879 35.7322Z"
            fill="#ffffff" />
        <path
            d="M120.253 35.8018C120.293 35.8048 120.122 35.8358 120.397 35.7778C120.383 35.779 120.379 35.7795 120.37 35.7802C120.345 35.7848 120.311 35.7911 120.253 35.8018Z"
            fill="#ffffff" />
        <path d="M120.37 35.7802C120.29 35.787 120.49 35.7567 120.37 35.7802V35.7802Z"
            fill="#ffffff" />
        <path
            d="M119.811 35.8928L119.968 35.8527C119.933 35.8526 119.791 35.8773 119.842 35.8627C119.679 35.8984 119.715 35.8995 119.811 35.8928Z"
            fill="#ffffff" />
        <path d="M119.664 35.9436L119.746 35.923C119.73 35.923 119.708 35.9261 119.664 35.9436Z"
            fill="#ffffff" />
        <path
            d="M119.919 35.8801L119.746 35.9229C119.77 35.9233 119.774 35.9322 119.825 35.9041C119.813 35.9155 119.846 35.9003 119.919 35.8801Z"
            fill="#ffffff" />
        <path
            d="M120.02 35.8652C120.111 35.8541 120.228 35.8346 120.069 35.8757C120.374 35.8109 120.325 35.8027 120.02 35.8652Z"
            fill="#ffffff" />
        <path
            d="M120.825 35.7668L120.946 35.7475L121.048 35.7183C120.997 35.7332 120.816 35.7616 120.825 35.7668Z"
            fill="#ffffff" />
        <path
            d="M118.809 36.0638C118.801 36.0733 118.868 36.074 118.882 36.0813L118.998 36.0501C118.936 36.0566 118.82 36.0737 118.809 36.0638Z"
            fill="#ffffff" />
        <path d="M118.882 36.0812L118.708 36.1287C118.866 36.0994 118.894 36.0877 118.882 36.0812Z"
            fill="#ffffff" />
        <path d="M119.643 35.983L119.928 35.9022L119.587 35.9946L119.643 35.983Z" fill="#ffffff" />
        <path d="M118.133 36.1891L118.229 36.1507L118.057 36.2141L118.133 36.1891Z" fill="#ffffff" />
        <path
            d="M117.686 36.2768C117.756 36.2456 117.577 36.2657 117.653 36.2405C117.532 36.2657 117.431 36.3003 117.341 36.332C117.439 36.3056 117.545 36.288 117.686 36.2768Z"
            fill="#ffffff" />
        <path
            d="M117.188 36.3826C117.237 36.3686 117.287 36.3509 117.341 36.332C117.289 36.3462 117.238 36.3621 117.188 36.3826Z"
            fill="#ffffff" />
        <path
            d="M118.406 36.1833C118.391 36.1811 118.362 36.1731 118.262 36.1865L118.336 36.1965C118.358 36.1925 118.382 36.188 118.406 36.1833Z"
            fill="#ffffff" />
        <path
            d="M118.339 36.1967L118.336 36.1964C118.261 36.2104 118.208 36.2202 118.186 36.2244C118.205 36.2209 118.251 36.2125 118.339 36.1967Z"
            fill="#ffffff" />
        <path d="M118.423 36.18L118.406 36.1833C118.413 36.1843 118.417 36.1843 118.423 36.18Z"
            fill="#ffffff" />
        <path
            d="M119.176 36.0592C119.075 36.0908 118.862 36.1478 119.075 36.1227C119.146 36.0935 119.024 36.1076 119.176 36.0592Z"
            fill="#ffffff" />
        <path
            d="M118.516 36.1917L118.705 36.1594C118.7 36.1543 118.664 36.1524 118.714 36.1363L118.516 36.1917Z"
            fill="#ffffff" />
        <path d="M118.426 36.2173L118.516 36.1916L118.446 36.2035L118.426 36.2173Z" fill="#ffffff" />
        <path
            d="M117.516 36.3461C117.437 36.3733 117.349 36.3916 117.249 36.4131C117.357 36.3975 117.469 36.3785 117.574 36.3578C117.587 36.3466 117.63 36.323 117.516 36.3461Z"
            fill="#ffffff" />
        <path d="M117.916 36.2763L117.899 36.2812C117.91 36.2812 117.919 36.2801 117.916 36.2763Z"
            fill="#ffffff" />
        <path d="M116.263 36.6057L116.28 36.6082L116.282 36.6021L116.263 36.6057Z" fill="#ffffff" />
        <path
            d="M117.593 36.3593C117.675 36.3484 117.722 36.3326 117.766 36.3158C117.706 36.3302 117.643 36.3442 117.574 36.3579C117.568 36.3629 117.568 36.3657 117.593 36.3593Z"
            fill="#ffffff" />
        <path
            d="M116.916 36.4482C116.959 36.4461 117.008 36.442 117.059 36.4369C117.016 36.436 116.929 36.438 116.916 36.4482Z"
            fill="#ffffff" />
        <path d="M117.87 36.2795L117.882 36.2761C117.854 36.2758 117.858 36.2778 117.87 36.2795Z"
            fill="#ffffff" />
        <path
            d="M117.87 36.2795C117.829 36.2912 117.798 36.3037 117.766 36.3157C117.815 36.3041 117.86 36.2925 117.899 36.2812C117.888 36.2814 117.878 36.2807 117.87 36.2795Z"
            fill="#ffffff" />
        <path
            d="M116.008 36.867C116.015 36.8341 116.221 36.7632 116.41 36.7547C116.585 36.6952 116.448 36.6301 116.28 36.6081C116.277 36.6217 116.279 36.6329 116.098 36.6869C116.166 36.6901 116.516 36.6401 116.366 36.6975C116.124 36.7628 116.163 36.7289 116.04 36.7378C116.149 36.7529 115.74 36.8557 115.805 36.8997L116.016 36.8346C116.021 36.842 115.946 36.8722 116.008 36.867Z"
            fill="#ffffff" />
        <path
            d="M116.633 36.5418L116.709 36.5234C116.621 36.5357 116.556 36.5372 116.437 36.5375C116.313 36.5754 116.289 36.5911 116.282 36.6023L116.659 36.5325L116.633 36.5418Z"
            fill="#ffffff" />
        <path
            d="M117.052 36.4561C116.998 36.4959 116.818 36.5453 116.937 36.5537C117.16 36.506 117.088 36.498 117.219 36.4591C116.86 36.5382 117.32 36.4231 117.055 36.4588C117.125 36.4401 117.189 36.4262 117.249 36.4133C117.183 36.4226 117.119 36.4306 117.059 36.4368L117.068 36.437L117.069 36.4366L117.069 36.4371C117.085 36.4376 117.091 36.4387 117.073 36.4401L117.066 36.4421L117.052 36.456C116.946 36.4706 117.034 36.4518 117.066 36.4421L117.069 36.4371L117.068 36.437L116.709 36.5235C116.787 36.5125 116.882 36.4926 117.052 36.4561Z"
            fill="#ffffff" />
        <path
            d="M118.893 36.2085C118.881 36.2091 118.881 36.2074 118.88 36.206C118.857 36.2138 118.848 36.2177 118.893 36.2085Z"
            fill="#ffffff" />
        <path
            d="M118.741 36.2274C118.767 36.2187 118.786 36.2054 118.872 36.1896C118.948 36.1804 118.874 36.2 118.88 36.2063C118.93 36.1894 119.056 36.1528 118.893 36.1764L118.868 36.1847C118.721 36.2082 118.528 36.2183 118.552 36.2098C118.599 36.2216 118.64 36.2285 118.741 36.2274Z"
            fill="#ffffff" />
        <path
            d="M117.889 36.3574L117.591 36.4319L117.749 36.4227L117.738 36.4109C117.91 36.3806 117.87 36.3719 117.889 36.3574Z"
            fill="#ffffff" />
        <path d="M116.225 36.5971L116.258 36.5568L116.093 36.6367L116.225 36.5971Z" fill="#ffffff" />
        <path d="M115.834 36.6769L115.842 36.6445L115.742 36.6824L115.834 36.6769Z" fill="#ffffff" />
        <path d="M105.35 36.4587L105.382 36.5566C105.372 36.5095 105.359 36.4801 105.35 36.4587Z"
            fill="#ffffff" />
        <path d="M105.12 35.7527L105.088 35.7481C105.117 35.7732 105.133 35.7818 105.12 35.7527Z"
            fill="#ffffff" />
        <path
            d="M106.215 38.3316C106.082 38.2935 105.934 38.23 105.953 38.2853L105.996 38.3374C106.086 38.3219 106.156 38.3236 106.215 38.3316Z"
            fill="#ffffff" />
        <path
            d="M100.585 36.6335C100.576 36.6445 100.569 36.6566 100.561 36.6686C100.577 36.7041 100.59 36.7358 100.605 36.7634C100.597 36.7254 100.59 36.6811 100.585 36.6335Z"
            fill="#ffffff" />
        <path
            d="M100.366 36.4795C100.366 36.4795 100.39 36.4339 100.415 36.3882C100.426 36.3654 100.44 36.3443 100.45 36.3282C100.46 36.3122 100.467 36.3016 100.467 36.3016C100.453 36.3198 100.436 36.3425 100.419 36.3716C100.403 36.4013 100.385 36.4368 100.366 36.4795Z"
            fill="#ffffff" />
        <path d="M103.53 39.6718L103.435 39.7585C103.611 39.7054 103.524 39.7019 103.53 39.6718Z"
            fill="#ffffff" />
        <path
            d="M111.825 37.4782C111.71 37.4833 111.62 37.4933 111.541 37.5065C111.681 37.5055 111.797 37.5213 111.825 37.4782Z"
            fill="#ffffff" />
        <path
            d="M104.686 36.3513C104.709 36.3942 104.726 36.4111 104.738 36.4065C104.715 36.361 104.697 36.3374 104.686 36.3513Z"
            fill="#ffffff" />
        <path
            d="M111.22 37.5699C111.241 37.5705 111.26 37.569 111.281 37.5688C111.361 37.5453 111.442 37.5233 111.541 37.5066C111.438 37.5072 111.322 37.5174 111.22 37.5699Z"
            fill="#ffffff" />
        <path
            d="M90.8239 37.5212C90.8144 37.5214 90.8029 37.5216 90.7942 37.5218C90.7918 37.5253 90.805 37.524 90.8239 37.5212Z"
            fill="#ffffff" />
        <path
            d="M87.2579 38.6211C87.2897 38.6018 87.3411 38.5695 87.3908 38.5413C87.3663 38.5543 87.3263 38.5788 87.2579 38.6211Z"
            fill="#ffffff" />
        <path d="M114.254 36.968C114.266 36.9614 114.335 36.9495 114.254 36.968V36.968Z"
            fill="#ffffff" />
        <path
            d="M114.689 37.0318C114.672 37.0397 114.66 37.0479 114.659 37.0569C114.664 37.0465 114.675 37.0384 114.689 37.0318Z"
            fill="#ffffff" />
        <path d="M110.454 38.0214L110.447 38.0227C110.473 38.0269 110.469 38.026 110.454 38.0214Z"
            fill="#ffffff" />
        <path
            d="M114.382 36.9606C114.35 36.9622 114.313 36.9653 114.274 36.9702C114.292 36.9698 114.325 36.9671 114.382 36.9606Z"
            fill="#ffffff" />
        <path
            d="M114.362 36.9465C114.391 36.9424 114.413 36.9391 114.435 36.936C114.444 36.9279 114.434 36.9258 114.362 36.9465Z"
            fill="#ffffff" />
        <path
            d="M114.138 36.9924C114.186 36.9826 114.23 36.9757 114.274 36.9701C114.257 36.9708 114.25 36.97 114.254 36.9679C114.229 36.973 114.195 36.9803 114.138 36.9924Z"
            fill="#ffffff" />
        <path d="M97.5013 38.7385L97.4856 38.7289C97.3997 38.7201 97.4358 38.7289 97.5013 38.7385Z"
            fill="#ffffff" />
        <path d="M104.025 38.9529L104.035 38.9506L104.022 38.9479L104.025 38.9529Z" fill="#ffffff" />
        <path
            d="M103.711 38.9768C103.849 38.9162 103.922 38.9269 104.022 38.948L103.929 38.7783C103.929 38.7783 103.875 38.8283 103.821 38.8782C103.766 38.9288 103.711 38.9768 103.711 38.9768Z"
            fill="#ffffff" />
        <path
            d="M96.7423 38.154L96.7916 38.1825C96.6674 38.1575 96.7049 38.1564 96.7423 38.154ZM113.636 37.1445C113.662 37.1329 113.659 37.1272 113.646 37.1235C113.629 37.1383 113.566 37.1517 113.493 37.1628C113.516 37.1703 113.554 37.1709 113.636 37.1445ZM113.35 37.1811L113.344 37.1845C113.205 37.1939 113.255 37.1913 113.35 37.1811ZM100.46 37.1274C100.444 37.1046 100.435 37.0724 100.434 37.0343C100.432 36.9965 100.437 36.9535 100.449 36.9089C100.453 36.9408 100.455 36.9748 100.458 37.0109C100.46 37.0471 100.459 37.0861 100.46 37.1274ZM104.337 34.9428C104.403 34.9711 104.555 35.0163 104.568 35.0856C104.513 35.0874 104.48 35.0729 104.446 35.0489C104.413 35.024 104.383 34.9862 104.337 34.9428ZM105.154 38.1664C105.154 38.1664 105.191 38.1172 105.226 38.066C105.258 38.0135 105.291 37.9611 105.291 37.9611C105.286 38.1142 105.24 38.2366 105.227 38.2991C105.211 38.3608 105.223 38.3635 105.305 38.2701C105.267 38.2434 105.274 38.1752 105.296 38.0855C105.314 37.9943 105.356 37.8828 105.381 37.7668C105.414 37.6525 105.43 37.5346 105.435 37.4438C105.435 37.3523 105.417 37.2872 105.374 37.2746C105.374 37.2746 105.388 37.2366 105.402 37.1986C105.413 37.1599 105.425 37.1211 105.425 37.1211C105.42 37.1662 105.433 37.1744 105.426 37.2188C105.479 37.0678 105.449 37.0065 105.408 36.9396C105.363 36.8715 105.321 36.7976 105.309 36.6051C105.311 36.5372 105.308 36.4792 105.314 36.4483C105.319 36.4175 105.331 36.4143 105.35 36.4587C105.35 36.4587 105.326 36.3848 105.298 36.3127C105.267 36.2418 105.235 36.1709 105.235 36.1709C105.214 36.0845 105.251 36.0951 105.272 36.1825C105.272 36.1825 105.263 36.1544 105.25 36.1123C105.233 36.0711 105.21 36.0162 105.188 35.9613C105.167 35.9059 105.137 35.854 105.117 35.814C105.096 35.7745 105.082 35.7481 105.082 35.7481L105.088 35.7488C105.062 35.7241 105.015 35.6862 104.972 35.6474C104.929 35.6086 104.887 35.5696 104.855 35.547C104.805 35.4368 104.907 35.5831 104.908 35.5459C104.908 35.5459 104.86 35.5006 104.811 35.4551C104.765 35.4088 104.71 35.3711 104.71 35.3711C104.692 35.3167 104.727 35.3197 104.784 35.3562C104.84 35.3927 104.908 35.4699 104.96 35.5463C104.963 35.4695 104.949 35.4204 104.929 35.3828C104.907 35.3456 104.879 35.319 104.838 35.2922C104.797 35.2645 104.749 35.2318 104.692 35.1781C104.66 35.1534 104.626 35.1235 104.589 35.086C104.57 35.0673 104.55 35.0464 104.529 35.0238C104.506 35.0032 104.483 34.9804 104.457 34.9552C104.457 34.9552 104.472 34.9633 104.494 34.9753C104.515 34.9878 104.545 35.0024 104.572 35.0225C104.626 35.0611 104.681 35.0996 104.681 35.0996C104.666 35.0521 104.642 35.0088 104.611 34.9673C104.581 34.9253 104.538 34.8923 104.494 34.8543C104.449 34.8171 104.4 34.7775 104.343 34.742C104.286 34.7059 104.227 34.6587 104.16 34.6154C104.167 34.6229 104.18 34.6337 104.197 34.649C104.214 34.6649 104.234 34.6844 104.256 34.7055C104.299 34.7479 104.348 34.7956 104.383 34.8399C104.449 34.9349 104.466 34.9998 104.331 34.9378C104.3 34.91 104.258 34.8849 104.206 34.8589C104.18 34.8463 104.151 34.8341 104.119 34.8227C104.086 34.8135 104.049 34.8073 104.01 34.8019C104.021 34.771 103.989 34.7454 103.93 34.7196C103.871 34.6936 103.784 34.6807 103.691 34.6577L103.722 34.5757C103.668 34.567 103.629 34.5709 103.597 34.5743C103.566 34.5781 103.543 34.584 103.523 34.5908C103.484 34.6045 103.455 34.6215 103.393 34.633C103.171 34.6146 103.122 34.543 103.067 34.4904C102.881 34.4926 102.948 34.5167 103.004 34.5449C103.06 34.5733 103.104 34.6054 102.895 34.6248C102.819 34.6179 102.753 34.6288 102.688 34.6358C102.622 34.6456 102.559 34.6539 102.496 34.6741C102.367 34.71 102.237 34.767 102.082 34.8463C101.88 34.887 102.097 34.7836 102.02 34.7848C102.02 34.7848 101.983 34.8167 101.947 34.8487C101.911 34.8822 101.876 34.9156 101.876 34.9156C101.835 34.931 101.839 34.9058 101.842 34.893C101.776 34.9348 101.784 34.9583 101.78 34.983C101.777 35.0095 101.762 35.0355 101.665 35.1007C101.66 35.1581 101.54 35.1803 101.396 35.2348C101.253 35.2872 101.086 35.3764 101.016 35.5179C100.946 35.5503 101.004 35.4544 100.965 35.4449C100.902 35.5296 100.859 35.591 100.828 35.6411C100.795 35.6898 100.775 35.7279 100.756 35.7634C100.737 35.7985 100.722 35.8342 100.705 35.8808C100.686 35.9265 100.668 35.9864 100.646 36.0688C100.646 36.0688 100.634 36.0824 100.616 36.1029C100.599 36.1238 100.574 36.1504 100.553 36.1802C100.531 36.2101 100.509 36.2399 100.492 36.2622C100.477 36.2859 100.467 36.3016 100.467 36.3016C100.502 36.2569 100.528 36.2441 100.544 36.2506C100.561 36.2573 100.567 36.283 100.572 36.3218C100.579 36.3984 100.573 36.5223 100.585 36.6335C100.608 36.6044 100.629 36.5775 100.648 36.5537C100.668 36.5311 100.685 36.5121 100.697 36.4964C100.697 36.4964 100.694 36.5166 100.689 36.5468C100.684 36.5769 100.683 36.6176 100.679 36.6573C100.679 36.6974 100.679 36.737 100.68 36.7663C100.683 36.7956 100.685 36.8151 100.685 36.8151C100.668 36.8514 100.64 36.821 100.606 36.7634C100.612 36.7866 100.618 36.8082 100.624 36.8248C100.603 36.8822 100.587 36.8978 100.563 36.8867C100.538 36.8755 100.514 36.837 100.493 36.7891C100.511 36.746 100.537 36.706 100.561 36.6686C100.522 36.5765 100.488 36.476 100.434 36.481C100.436 36.5075 100.435 36.5569 100.428 36.6088C100.419 36.5821 100.41 36.5635 100.399 36.5731C100.386 36.5838 100.397 36.6285 100.411 36.6939C100.411 36.6939 100.384 36.7123 100.357 36.7325C100.331 36.7536 100.305 36.7747 100.305 36.7747L100.343 36.7995C100.343 36.7995 100.317 36.9307 100.324 37.0681C100.323 37.1027 100.327 37.1366 100.331 37.1688C100.334 37.2009 100.336 37.2317 100.342 37.2569C100.352 37.308 100.359 37.3422 100.359 37.3422C100.471 37.5139 100.616 37.6339 100.777 37.7417C100.94 37.8488 101.121 37.9445 101.347 38.0591C101.201 38.0535 101.261 38.1425 101.211 38.2107C101.19 38.1736 101.159 38.1401 101.117 38.1104C101.075 38.0818 101.026 38.052 100.972 38.0198C100.917 37.9899 100.861 37.9492 100.803 37.9076C100.749 37.8607 100.693 37.8109 100.652 37.7466C100.696 37.8125 100.708 37.8422 100.703 37.8553C100.697 37.8684 100.674 37.8634 100.655 37.8527C100.655 37.8527 100.682 37.8747 100.722 37.9076C100.762 37.9417 100.819 37.9787 100.875 38.0165C100.932 38.0529 100.99 38.0837 101.033 38.1085C101.076 38.1298 101.106 38.1439 101.106 38.1439C101.081 38.1688 101.096 38.1949 101.13 38.2277C101.164 38.2597 101.218 38.2939 101.269 38.3415C101.264 38.2986 101.285 38.2858 101.322 38.2888C101.36 38.2909 101.413 38.3096 101.474 38.3349C101.534 38.3586 101.603 38.3856 101.668 38.4113C101.734 38.4336 101.798 38.4535 101.847 38.4619C101.845 38.4852 101.829 38.5039 101.785 38.5034C101.741 38.5013 101.668 38.488 101.557 38.4294C101.609 38.482 101.661 38.5057 101.711 38.5157C101.761 38.5255 101.808 38.5245 101.856 38.5182C101.953 38.5071 102.044 38.495 102.156 38.5713C102.099 38.5557 102.071 38.5401 102.042 38.5555C102.185 38.5602 102.498 38.6708 102.414 38.6897L102.357 38.6763C102.544 38.7327 102.835 38.7905 103.087 38.8076C103.34 38.8271 103.552 38.8135 103.585 38.7596C103.587 38.7744 103.522 38.8903 103.497 38.911C103.497 38.911 103.542 38.891 103.609 38.861C103.676 38.8304 103.765 38.7926 103.852 38.7495C103.939 38.7075 104.025 38.6655 104.09 38.6341C104.154 38.6013 104.196 38.5794 104.196 38.5794C104.132 38.6726 104.355 38.9087 104.035 38.9508C104.125 38.9692 104.238 38.9875 104.431 38.9589C104.369 38.9447 104.281 38.8168 104.365 38.811C104.594 38.9203 104.524 38.8711 104.811 38.9606C104.718 38.9418 104.821 38.7918 104.966 38.7948C104.943 38.8172 104.98 38.9405 104.926 38.9568C104.926 38.9568 105.017 38.9191 105.108 38.8814C105.197 38.8421 105.287 38.8029 105.287 38.8029C105.197 38.832 105.274 38.9258 105.358 38.9634C105.338 38.9497 105.417 38.9483 105.513 38.9458C105.609 38.9427 105.722 38.9403 105.77 38.9305L105.614 38.9062C105.82 38.9058 105.918 38.8491 106.015 38.7895C106.111 38.7297 106.207 38.6725 106.408 38.6573C106.362 38.6905 106.302 38.8469 106.51 38.8453C106.599 38.7649 106.894 38.4625 107.238 38.3695L107.311 38.4016L107.576 38.3243C107.498 38.3868 107.348 38.4865 107.185 38.5873C107.022 38.6871 106.845 38.7841 106.718 38.843C106.874 38.8582 106.765 38.8862 106.994 38.8568C107.079 38.8854 106.875 38.9284 106.808 38.9384C106.808 38.9384 106.942 38.9293 107.076 38.9201C107.21 38.9115 107.344 38.8987 107.344 38.8987C107.311 38.8203 107.74 38.7642 107.711 38.6983C107.711 38.6983 107.57 38.7398 107.428 38.7786C107.287 38.8183 107.145 38.858 107.145 38.858C107.129 38.8188 107.205 38.7496 107.333 38.6871C107.46 38.6249 107.638 38.5687 107.825 38.5489C107.925 38.5674 107.774 38.7019 107.785 38.7277C107.83 38.6928 108.133 38.6247 108.17 38.6373L108.018 38.704C108.231 38.7022 108.341 38.5462 108.603 38.5816C108.69 38.5719 108.876 38.637 108.884 38.5885C108.728 38.525 108.656 38.2539 108.738 38.1727C108.769 38.1749 109.201 38.1843 109.306 38.2077C109.459 38.2499 109.124 38.4082 109.254 38.445C109.255 38.4232 109.329 38.3831 109.36 38.3689C109.453 38.37 109.334 38.44 109.528 38.3942C109.547 38.313 109.926 38.3233 109.608 38.3127C109.795 38.2537 109.814 38.2884 110.037 38.2408C109.957 38.2066 110.205 38.0378 110.391 37.978C110.383 37.999 110.431 38.0146 110.454 38.0214C110.845 37.9493 111.06 37.935 111.422 37.859C111.459 37.8688 111.638 37.8515 111.57 37.8974C111.619 37.8738 111.662 37.8401 111.774 37.8145C112.002 37.827 111.527 37.8776 111.707 37.9135C111.712 37.8702 111.984 37.7955 112.137 37.7369C112.075 37.6869 111.767 37.8035 111.614 37.8633C111.594 37.7774 111.853 37.6295 112.224 37.5142C112.521 37.4325 112.366 37.5406 112.416 37.5183C112.984 37.415 112.868 37.2804 113.35 37.2424C113.547 37.2537 113.38 37.3384 113.429 37.3654C113.188 37.436 113.046 37.4131 112.88 37.4496L113.089 37.4306C113.015 37.4636 112.854 37.5113 112.762 37.5151C112.928 37.5278 113.719 37.322 114.163 37.268C114.237 37.2357 114.367 37.1913 114.3 37.1862L114.163 37.2218C114.028 37.2106 114.412 37.1158 114.233 37.1347C114.413 37.07 114.612 36.9885 114.878 36.956L114.938 36.9959C114.929 36.9826 114.761 37.0012 114.691 37.0316C114.795 36.9877 115.105 37.0159 115.21 36.9267L115.02 36.9302C115.201 36.8668 115.42 36.7708 115.655 36.7402C115.539 36.7144 115.603 36.7564 115.426 36.7335C115.584 36.7743 114.833 36.8459 115.078 36.8751C114.895 36.8421 114.78 36.9052 114.546 36.8894C114.557 36.905 114.632 36.9066 114.435 36.9359C114.428 36.9426 114.408 36.953 114.396 36.9593L114.382 36.9606H114.394C114.386 36.9648 114.385 36.9654 114.398 36.9604C114.446 36.959 114.485 36.9606 114.502 36.9671C114.414 37.0251 114.105 37.086 114.005 37.1282C113.888 37.143 114.049 37.0982 113.982 37.0919L113.833 37.1549C113.809 37.1186 113.512 37.1491 113.779 37.0723L113.534 37.1183C113.385 37.1236 113.185 37.1525 113.066 37.194C112.949 37.2073 112.785 37.298 112.878 37.2451L112.5 37.3468L112.494 37.3368C112.114 37.4043 111.731 37.5659 111.281 37.5688C111.156 37.6056 111.028 37.6465 110.812 37.6756L110.761 37.6429C110.601 37.6901 110.264 37.6945 110.202 37.7518C110.004 37.6722 109.407 37.8693 109.116 37.8944L109.115 37.9539C108.917 37.9836 108.73 38.0278 108.488 38.0901L108.512 38.1401C108.306 38.2142 107.96 38.1823 107.624 38.2287C107.645 38.2052 107.73 38.1997 107.792 38.2042C107.376 38.1354 106.955 38.394 106.58 38.3366C106.491 38.3642 106.424 38.3629 106.359 38.3539C106.368 38.3531 106.375 38.3515 106.381 38.3491C106.372 38.3493 106.358 38.3503 106.344 38.3515C106.303 38.3452 106.261 38.3387 106.215 38.3317C106.255 38.3429 106.292 38.3507 106.324 38.3534C106.254 38.361 106.148 38.3744 106.045 38.3953L105.996 38.3375C105.988 38.3386 105.981 38.3396 105.972 38.3407C105.869 38.3247 105.892 38.3748 105.95 38.4169C105.898 38.4301 105.85 38.4461 105.814 38.4622C105.725 38.3671 105.541 38.5092 105.423 38.4073C105.389 38.434 105.258 38.4472 105.129 38.4678C105 38.487 104.873 38.5113 104.845 38.5669C104.842 38.5526 104.811 38.5461 104.867 38.5447C104.75 38.5342 104.634 38.5187 104.529 38.5487L104.481 38.4683C104.481 38.4683 104.417 38.4948 104.353 38.5187C104.289 38.5432 104.224 38.5677 104.224 38.5677C104.071 38.5135 104.01 38.481 104.165 38.4266C103.793 38.5009 103.866 38.4464 103.545 38.5134L103.566 38.4626C103.455 38.4535 103.268 38.5026 103.207 38.4496C103.09 38.3823 102.786 38.336 102.447 38.2456C102.108 38.1591 101.732 38.0148 101.508 37.8195C101.517 37.9168 101.465 37.8666 101.406 37.8015C101.377 37.7675 101.345 37.7322 101.318 37.7084C101.291 37.6841 101.264 37.6738 101.239 37.6938C101.235 37.6443 101.196 37.5775 101.283 37.6114C101.165 37.5347 101.11 37.4463 101.064 37.3739C101.022 37.2982 100.986 37.24 100.906 37.177C100.931 37.1383 100.978 37.2055 100.989 37.1741C100.973 37.1612 100.933 37.1141 100.947 37.0846C100.962 37.0565 100.989 37.1085 101.014 37.1359C100.972 37.0318 100.943 36.974 100.892 36.938C100.847 36.9016 100.79 36.8897 100.735 36.8798C100.788 36.7319 100.798 36.6713 100.758 36.5424C100.784 36.5215 100.81 36.4934 100.828 36.4939C100.844 36.494 100.848 36.5214 100.829 36.6085C100.844 36.5604 100.903 36.4184 100.979 36.2933C101.052 36.1672 101.132 36.055 101.102 36.0227C101.14 36.0095 101.207 35.9129 101.22 35.8851C101.31 35.7998 101.363 35.7584 101.416 35.7178C101.469 35.6771 101.521 35.6357 101.621 35.5651C101.621 35.5651 101.605 35.5714 101.588 35.5777C101.572 35.5839 101.556 35.5907 101.556 35.5907C101.578 35.4493 101.715 35.4536 101.888 35.3542L101.888 35.3664C102.112 35.3021 102.155 35.2844 102.199 35.2589C102.22 35.2467 102.242 35.235 102.287 35.2245C102.332 35.2127 102.401 35.2019 102.515 35.1972L102.476 35.1386C102.48 35.0663 102.587 35.0593 102.722 35.0755C102.755 35.0787 102.79 35.0821 102.826 35.0855C102.862 35.0877 102.898 35.091 102.934 35.0959C103.006 35.1041 103.077 35.1018 103.143 35.0877C103.143 35.0877 103.137 35.0851 103.128 35.0812C103.119 35.0782 103.107 35.0741 103.095 35.07C103.071 35.062 103.047 35.054 103.047 35.054C103.119 35.0216 103.222 35.0784 103.315 35.1373C103.362 35.1653 103.404 35.2071 103.443 35.2355C103.482 35.2667 103.518 35.2857 103.547 35.2997C103.559 35.3092 103.548 35.3113 103.528 35.3108C103.509 35.3112 103.48 35.3128 103.46 35.3142C103.48 35.3222 103.498 35.3287 103.513 35.3341C103.528 35.3406 103.541 35.3463 103.552 35.3513C103.574 35.3604 103.589 35.3645 103.601 35.365C103.624 35.3663 103.631 35.3534 103.635 35.337C103.64 35.3205 103.643 35.3002 103.66 35.2866C103.677 35.274 103.712 35.2634 103.772 35.2834C103.799 35.3425 103.68 35.3751 103.826 35.4377C103.841 35.453 103.875 35.4679 103.925 35.4801C103.976 35.4897 104.034 35.512 104.1 35.5359C104.134 35.5462 104.163 35.5656 104.194 35.5832C104.224 35.6023 104.258 35.6185 104.283 35.6436C104.334 35.6921 104.38 35.7421 104.394 35.8027C104.393 35.7422 104.387 35.676 104.481 35.7558C104.497 35.7732 104.511 35.7938 104.526 35.8164C104.539 35.8398 104.549 35.867 104.56 35.8943C104.571 35.9217 104.581 35.95 104.592 35.9787C104.6 36.0085 104.608 36.0387 104.617 36.0688C104.636 36.1267 104.649 36.1862 104.671 36.2372C104.695 36.2873 104.718 36.3334 104.756 36.3669C104.754 36.3926 104.747 36.4034 104.739 36.4066C104.757 36.4385 104.772 36.4835 104.789 36.5336C104.797 36.5587 104.806 36.5849 104.815 36.6115C104.822 36.6389 104.829 36.6666 104.836 36.6938C104.868 36.8027 104.885 36.9089 104.918 36.9543C104.864 36.9897 104.838 37.0629 104.832 37.1543C104.825 37.2 104.822 37.2503 104.821 37.303C104.821 37.3558 104.815 37.4098 104.813 37.4639C104.812 37.5183 104.804 37.5704 104.797 37.6189C104.79 37.6674 104.782 37.7124 104.768 37.7477C104.742 37.8195 104.709 37.8598 104.662 37.8409C104.662 37.8409 104.66 37.8475 104.656 37.8593C104.652 37.8706 104.645 37.8868 104.637 37.9063C104.621 37.9448 104.602 37.9983 104.578 38.0488C104.553 38.099 104.528 38.1492 104.509 38.1869C104.487 38.2229 104.473 38.2468 104.473 38.2468L104.462 38.2263C104.383 38.3447 104.328 38.4208 104.296 38.4904C104.259 38.5545 104.243 38.6081 104.225 38.663C104.166 38.6992 104.189 38.6524 104.186 38.6417C104.101 38.7044 104.039 38.7554 103.981 38.7903C103.953 38.8092 103.928 38.8269 103.906 38.8444C103.883 38.8615 103.859 38.8748 103.838 38.8909C103.795 38.9205 103.759 38.9599 103.71 38.9953C103.661 39.032 103.611 39.0837 103.529 39.1371L103.471 39.0921C103.45 39.1087 103.402 39.1288 103.332 39.1426C103.262 39.1582 103.174 39.1754 103.074 39.1883C102.876 39.2181 102.639 39.2455 102.424 39.2979C102.428 39.2906 102.436 39.2779 102.469 39.2658C102.229 39.3272 101.931 39.2908 101.677 39.2572C101.422 39.2213 101.207 39.1974 101.103 39.2912C101.103 39.2912 101.018 39.2942 100.934 39.2972C100.849 39.2978 100.765 39.2985 100.765 39.2985C101.191 39.3789 100.687 39.3801 100.858 39.4416C100.685 39.4294 100.431 39.3059 100.64 39.3319L100.671 39.3479C100.718 39.3002 100.587 39.2676 100.447 39.2379C100.308 39.2067 100.16 39.1758 100.173 39.1412C99.3363 38.9747 98.548 38.6871 97.7788 38.4532L97.8447 38.5524L97.5772 38.4658C97.5119 38.4274 97.5004 38.3813 97.6912 38.4425C97.6033 38.3718 97.3588 38.378 97.3484 38.391C96.9825 38.2461 97.5216 38.3545 97.4071 38.317L97.2491 38.2741L97.2816 38.2932C97.1456 38.2827 97.1246 38.3089 96.8955 38.2332C96.7543 38.1737 96.8346 38.1676 96.7781 38.147C96.78 38.1423 96.7614 38.134 96.6907 38.1175L96.354 38.0055L96.4719 38.1006C96.3134 38.0788 96.1549 37.9964 96.2912 38.1053C96.0926 37.9413 95.0395 37.6709 94.9066 37.6015C94.8511 37.5936 94.7966 37.5836 94.7419 37.5717C94.6862 37.5608 94.6303 37.5482 94.5734 37.534C94.5165 37.5198 94.4585 37.504 94.3984 37.4869C94.3683 37.4782 94.3378 37.4693 94.3064 37.4602C94.2748 37.4525 94.2424 37.4446 94.2093 37.4366C94.2732 37.461 94.2986 37.5214 94.0726 37.4622C94.1269 37.4196 94.0247 37.3842 93.8871 37.3454C93.7481 37.313 93.5743 37.2793 93.4856 37.2274C93.6476 37.2933 92.8159 37.1599 93.0743 37.2568C92.8797 37.2316 93.0665 37.2189 92.9197 37.1853C92.684 37.1845 92.4269 37.1692 92.1547 37.1639C91.8828 37.1601 91.5959 37.1652 91.3088 37.2049C91.3009 37.216 91.3983 37.2211 91.2769 37.25C91.2769 37.25 91.1999 37.2459 91.1228 37.2419C91.0456 37.2386 90.9687 37.2398 90.9687 37.2398C90.8565 37.2643 90.8725 37.3084 90.6627 37.3133C90.6928 37.3153 90.7378 37.3188 90.6634 37.3362C90.1047 37.4169 89.5483 37.58 89.0098 37.7844C88.471 37.9894 87.9442 38.2285 87.4451 38.5024C87.5815 38.4303 87.4928 38.4825 87.3908 38.5413C87.4578 38.5044 87.3928 38.5485 87.4078 38.5444C87.4078 38.5444 87.3817 38.5586 87.3425 38.5798C87.3037 38.602 87.252 38.6313 87.2003 38.6607C87.0976 38.7209 86.9967 38.7837 86.9967 38.7837C86.9624 38.8107 86.8551 38.8795 86.7542 38.9493C86.6528 39.0187 86.5578 39.0888 86.5384 39.1043L86.6604 39.0162C86.5795 39.0752 86.6376 39.0361 86.7148 38.9874C86.7923 38.9389 86.8896 38.8823 86.8796 38.8938C86.9731 38.8324 87.1007 38.7582 87.2474 38.6818C87.3938 38.6046 87.5583 38.5245 87.7175 38.4335C87.7919 38.4013 87.6585 38.4696 87.6994 38.4545C87.7787 38.4058 87.8789 38.3548 88.0698 38.2726L88.0493 38.2843C88.1831 38.2258 88.2971 38.1744 88.4053 38.1331C88.4591 38.1119 88.5109 38.0917 88.5618 38.0717C88.6133 38.0535 88.664 38.0355 88.7152 38.0174C88.9198 37.9443 89.1368 37.8791 89.4514 37.7918L89.3993 37.7874C89.535 37.7505 89.5658 37.7503 89.6305 37.7375C89.7039 37.7017 89.6087 37.7272 89.5116 37.7531C89.414 37.7774 89.3167 37.8095 89.3819 37.7718C89.429 37.7659 89.5132 37.7494 89.6138 37.7242C89.7141 37.698 89.8327 37.6698 89.9497 37.6429C90.0661 37.6138 90.1824 37.5927 90.2771 37.5775C90.3718 37.562 90.4457 37.5554 90.4794 37.5651C90.692 37.5316 90.4118 37.5477 90.6245 37.5135L90.6835 37.5197L90.7339 37.4911C90.8746 37.4749 90.9483 37.4879 90.9553 37.5006C90.9211 37.503 90.8595 37.5158 90.8232 37.5211C90.9154 37.5205 91.0425 37.5025 91.155 37.4885C91.2678 37.4765 91.3656 37.4638 91.397 37.4647L91.1906 37.4701C91.3361 37.4551 91.4898 37.4381 91.648 37.4345C91.727 37.4319 91.8069 37.4267 91.8872 37.4263C91.9675 37.4267 92.0482 37.4272 92.1288 37.4275C92.2093 37.4264 92.2895 37.4297 92.3691 37.4338C92.4487 37.4367 92.5275 37.4395 92.6051 37.4422C92.76 37.4529 92.9102 37.4603 93.0517 37.4657L93.0109 37.444C93.2268 37.4588 93.3123 37.4761 93.4022 37.4956C93.4918 37.5176 93.5849 37.5469 93.819 37.5845L93.8011 37.5853C93.8973 37.5883 94.0223 37.6122 94.1481 37.6447C94.0272 37.6359 94.3556 37.7396 94.1978 37.7239C94.6541 37.8234 94.4251 37.7614 94.7435 37.7876L94.8023 37.8405C94.9126 37.847 94.926 37.8348 95.1566 37.9024C94.961 37.8666 95.2864 37.9984 95.0656 37.9632C95.5197 38.1942 95.7981 38.1322 95.9825 38.3107C96.2321 38.2938 95.5861 38.12 95.7153 38.1424C95.622 38.0789 95.9188 38.1361 96.066 38.195C96.2183 38.2475 96.2864 38.4 96.6708 38.5292C96.6328 38.5157 96.6278 38.5221 96.5899 38.5086C96.7254 38.5822 96.8827 38.5706 97.0461 38.6703C97.1645 38.6441 97.2746 38.7502 97.328 38.6833L96.9688 38.5841C97.1753 38.6318 97.3924 38.6032 97.7095 38.7525C97.6787 38.7601 97.5736 38.749 97.5022 38.7385C97.5918 38.7926 97.6933 38.7839 97.7865 38.8392C97.7328 38.909 97.35 38.7172 97.1167 38.7035C97.2097 38.7707 97.541 38.7829 97.4062 38.8304C97.5957 38.7749 97.7825 38.9699 98.0715 38.9697L98.0393 39.0122C98.0833 39.0178 98.1766 39.022 98.2529 39.0471L98.095 39.0662C98.3243 39.0797 98.4926 39.2419 98.708 39.2739C98.2761 39.1457 98.6284 39.1854 98.4569 39.0949C99.0074 39.1848 98.7234 39.3188 99.3326 39.4617C99.2484 39.4477 99.0345 39.3472 99.1681 39.3591C99.2797 39.4008 99.4265 39.4605 99.4905 39.5065C99.8961 39.5968 99.4418 39.4375 99.6211 39.4485C99.7424 39.5466 99.8248 39.4715 100.006 39.4904L99.9953 39.5447C100.223 39.6135 100.26 39.5898 100.29 39.5678C100.32 39.5455 100.344 39.5231 100.55 39.5826L100.358 39.6263L100.581 39.6474L100.525 39.7021C100.773 39.6977 100.845 39.7216 101.081 39.7717C101.031 39.7237 101.124 39.6747 101.334 39.6931C101.474 39.7404 101.247 39.7435 101.548 39.7579C101.479 39.7891 101.399 39.83 101.273 39.7621C101.258 39.7794 101.203 39.791 101.187 39.8079C101.339 39.866 101.581 39.8553 101.691 39.8595C101.648 39.8564 101.598 39.8484 101.573 39.8385C101.573 39.8385 101.6 39.8355 101.642 39.831C101.684 39.8251 101.739 39.8172 101.795 39.8094C101.906 39.7949 102.016 39.7728 102.016 39.7728C102.085 39.7948 102.031 39.8126 101.975 39.83C102.066 39.8229 102.127 39.799 102.259 39.7869C102.243 39.8117 102.237 39.8364 102.212 39.8587C102.187 39.8814 102.142 39.9011 102.048 39.9114C102.048 39.9114 102.155 39.9 102.261 39.8807C102.315 39.8717 102.368 39.8627 102.408 39.856C102.448 39.8476 102.474 39.842 102.474 39.842C102.504 39.8607 102.701 39.8808 102.647 39.9035C102.709 39.9027 102.776 39.8917 102.847 39.8753C102.917 39.8595 102.991 39.8311 103.067 39.8063C103.22 39.753 103.376 39.6892 103.536 39.6582C103.55 39.6447 103.579 39.6253 103.641 39.5945C103.924 39.5052 104.243 39.4153 104.484 39.1103C104.484 39.1103 104.54 39.0905 104.596 39.0708C104.626 39.0612 104.651 39.0479 104.672 39.0391C104.692 39.0299 104.706 39.0237 104.706 39.0237C104.803 38.9046 104.729 38.9414 104.674 38.956C104.646 38.9634 104.623 38.9655 104.625 38.9422C104.627 38.9306 104.634 38.9126 104.651 38.8858C104.668 38.8587 104.696 38.8246 104.728 38.7737C104.775 38.7023 104.806 38.6634 104.83 38.6436C104.852 38.623 104.866 38.6216 104.878 38.6274C104.902 38.6386 104.916 38.6777 104.961 38.6333C104.975 38.5909 104.991 38.5405 105.01 38.4842C105.025 38.4272 105.042 38.3654 105.065 38.3021C105.107 38.1736 105.161 38.0366 105.246 37.9006C105.228 38.0037 105.19 38.0761 105.154 38.1664Z"
            fill="#ffffff" />
        <path
            d="M100.391 36.501C100.406 36.4838 100.42 36.4821 100.433 36.4809C100.431 36.452 100.417 36.4465 100.391 36.501Z"
            fill="#ffffff" />
        <path d="M103.546 39.656L103.536 39.6584L103.53 39.6719L103.546 39.656Z" fill="#ffffff" />
        <path
            d="M109.371 38.452C109.312 38.4551 109.277 38.4512 109.254 38.4449C109.253 38.4589 109.282 38.4652 109.371 38.452Z"
            fill="#ffffff" />
        <path
            d="M115.11 36.7839L114.932 36.8289C115.019 36.8101 115.052 36.8125 115.097 36.8102C115.091 36.8019 115.054 36.7954 115.11 36.7839Z"
            fill="#ffffff" />
        <path
            d="M116.719 36.6893C116.744 36.6796 116.775 36.6769 116.799 36.6673L116.789 36.6536C116.677 36.6783 116.602 36.7077 116.719 36.6893Z"
            fill="#ffffff" />
        <path
            d="M115.304 36.8784C115.326 36.9075 115.436 36.8733 115.561 36.8417C115.553 36.8434 115.546 36.8451 115.538 36.8463C115.566 36.795 115.435 36.8364 115.304 36.8784Z"
            fill="#ffffff" />
        <path
            d="M115.59 36.8347C115.628 36.8253 115.667 36.8164 115.706 36.8101C115.717 36.7898 115.658 36.8161 115.59 36.8347Z"
            fill="#ffffff" />
        <path
            d="M113.987 37.0502C114.049 37.0475 114.015 36.9975 114.052 37.0054C114.109 36.947 113.665 37.1381 113.987 37.0502Z"
            fill="#ffffff" />
        <path d="M115.429 36.962L115.375 36.9323L115.312 36.979L115.429 36.962Z" fill="#ffffff" />
        <path
            d="M114.43 37.1423L114.633 37.1118C114.629 37.1054 114.653 37.0959 114.684 37.0862C114.56 37.1109 114.422 37.1307 114.43 37.1423Z"
            fill="#ffffff" />
        <path
            d="M114.684 37.0862C114.749 37.0735 114.81 37.0598 114.844 37.0454C114.81 37.0533 114.735 37.0702 114.684 37.0862Z"
            fill="#ffffff" />
        <path d="M115.157 37.0328L115.096 37.0371L114.953 37.0645L115.157 37.0328Z" fill="#ffffff" />
        <path
            d="M112.267 37.5854L112.051 37.6454C112.032 37.6671 112.094 37.6649 112.174 37.641C112.224 37.6182 112.304 37.5947 112.267 37.5854Z"
            fill="#ffffff" />
        <path
            d="M112.958 37.5764C112.897 37.5795 112.891 37.5697 112.854 37.5613L112.86 37.6216L112.958 37.5764Z"
            fill="#ffffff" />
        <path
            d="M112.323 37.7291C112.304 37.7505 112.015 37.8472 112.292 37.7825C112.311 37.7608 112.527 37.6991 112.323 37.7291Z"
            fill="#ffffff" />
        <path d="M108.995 38.3206L109.05 38.3103L109.023 38.1953L108.995 38.3206Z" fill="#ffffff" />
        <path
            d="M106.061 38.9982C106.332 39.0071 106.119 38.9157 106.364 38.9323C106.424 38.8971 106.164 38.9189 106.226 38.8868C106.067 38.9309 105.981 38.9196 106.061 38.9982Z"
            fill="#ffffff" />
        <path
            d="M106.226 38.8867C106.252 38.8797 106.279 38.8718 106.307 38.8606C106.261 38.8731 106.239 38.8802 106.226 38.8867Z"
            fill="#ffffff" />
        <path
            d="M86.7306 38.9583C86.7306 38.9583 86.6958 38.9831 86.6609 39.0079C86.6264 39.0329 86.5919 39.0581 86.5919 39.0581L86.6819 38.9944L86.7306 38.9583Z"
            fill="#ffffff" />
        <path
            d="M86.4684 39.1553L86.436 39.179L86.3566 39.2437C86.3862 39.2191 86.4448 39.1726 86.4684 39.1553Z"
            fill="#ffffff" />
        <path
            d="M103.879 34.5531L103.858 34.5696C103.883 34.6 103.93 34.6118 104.021 34.6521C104.021 34.6521 103.986 34.6259 103.951 34.5998C103.934 34.5858 103.916 34.5761 103.902 34.5673C103.888 34.5588 103.879 34.5531 103.879 34.5531Z"
            fill="#ffffff" />
        <path d="M105.466 36.69L105.463 36.6441L105.394 36.7356L105.466 36.69Z" fill="#ffffff" />
        <path
            d="M104.946 38.8401C105.011 38.7681 105.055 38.6638 105.11 38.5863C105.011 38.7703 104.853 38.8028 104.946 38.8401Z"
            fill="#ffffff" />
        <path
            d="M87.9254 29.4633C87.9254 29.4633 89.7064 19.838 96.0881 11.6866C96.0881 11.6866 89.3632 22.143 88.4616 29.9974C88.4124 30.4259 88.8628 30.7371 89.2519 30.5455C90.52 29.9212 92.8043 28.6339 93.5426 27.1532C94.5123 25.209 104.518 2.08873 104.518 2.08873C104.518 2.08873 87.7199 13.5126 87.9254 29.4633Z"
            fill="#ffffff" />
        <path
            d="M87.3697 30.6152L86.4378 33.6761C86.42 33.7388 86.4109 33.8034 86.4109 33.8685V33.9904C86.4109 34.2174 86.5208 34.4306 86.7063 34.5634L86.806 34.6347C87.207 34.7828 87.6072 34.5168 87.6299 34.4559C87.695 34.2816 89.2727 31.0891 89.2727 31.0891C88.1341 31.6383 87.3697 30.6152 87.3697 30.6152Z"
            fill="#ffffff" />
        <path
            d="M86.7228 34.9039L86.2937 35.8653C86.3636 35.9069 86.4109 35.9822 86.4109 36.0692C86.4109 36.2009 86.3034 36.3076 86.1708 36.3076C86.0382 36.3076 85.9306 36.2009 85.9306 36.0692C85.9306 35.9385 86.0366 35.8325 86.1679 35.8309L86.5416 34.7911C86.2824 34.5649 86.2095 34.1797 86.2095 34.1797L85.6891 35.9134V37.4817L86.7409 36.2472L87.5215 34.7827C87.1741 34.9759 86.9151 34.983 86.7228 34.9039Z"
            fill="#ffffff" />
        <path
            d="M21.168 32.848C20.6453 32.848 20.244 32.6427 19.964 32.232C19.684 31.8213 19.544 31.336 19.544 30.776C19.544 29.6933 20.0387 28.2187 21.028 26.352C20.3373 26.408 19.6467 26.436 18.956 26.436C18.452 26.436 17.5 26.408 16.1 26.352L12.516 26.24C11.2093 28.3307 10.1453 30.2347 9.324 31.952C9.08133 32.456 8.75467 32.708 8.344 32.708C8.064 32.708 7.924 32.5773 7.924 32.316C7.924 32.1293 7.98 31.924 8.092 31.7C8.40933 31.0093 8.82 30.2067 9.324 29.292C9.84667 28.3773 10.4533 27.3507 11.144 26.212C9.61333 26.212 8.596 26.2773 8.092 26.408C7.252 26.6133 6.62667 27.0333 6.216 27.668C6.06667 27.8733 5.94533 27.9853 5.852 28.004C5.74 28.0227 5.684 27.976 5.684 27.864C5.684 27.7707 5.72133 27.6867 5.796 27.612C6.50533 26.66 7.224 25.9973 7.952 25.624C8.69867 25.232 9.996 25.064 11.844 25.12C13.0013 23.384 14.5973 20.808 16.632 17.392C17.3973 15.9547 17.78 14.788 17.78 13.892C17.78 12.436 16.8 11.708 14.84 11.708C12.4507 11.708 10.2293 12.3333 8.176 13.584C7.09333 14.256 6.076 15.1053 5.124 16.132C4.172 17.14 3.40667 18.2227 2.828 19.38C2.24933 20.5187 1.96 21.6387 1.96 22.74C1.96 24.476 2.772 25.344 4.396 25.344C5.124 25.344 5.768 25.176 6.328 24.84C6.888 24.4853 7.38267 24.0373 7.812 23.496C8.652 22.4507 9.072 21.4147 9.072 20.388C9.072 19.8093 8.92267 19.3333 8.624 18.96C8.58667 18.9227 8.568 18.876 8.568 18.82C8.568 18.6893 8.64267 18.624 8.792 18.624C8.88533 18.624 8.94133 18.652 8.96 18.708C9.33333 19.1933 9.52 19.772 9.52 20.444C9.52 21.5827 9.05333 22.7493 8.12 23.944C7.54133 24.6533 6.944 25.176 6.328 25.512C5.73067 25.8293 5.04 25.988 4.256 25.988C3.08 25.988 2.16533 25.624 1.512 24.896C0.858667 24.1493 0.532 23.1973 0.532 22.04C0.532 20.472 0.998667 18.988 1.932 17.588C2.884 16.188 4.07867 14.984 5.516 13.976C8.35333 11.9787 11.5173 11.0267 15.008 11.12C15.7547 11.1387 16.4547 11.2787 17.108 11.54C17.7613 11.7827 18.284 12.1467 18.676 12.632C19.0867 13.0987 19.292 13.6867 19.292 14.396C19.292 15.292 18.9467 16.2907 18.256 17.392L13.188 25.176C13.5613 25.1947 14.0467 25.232 14.644 25.288C15.2413 25.3253 15.9507 25.3907 16.772 25.484C17.4627 25.5587 18.0413 25.6147 18.508 25.652C18.9747 25.6707 19.3293 25.68 19.572 25.68C20.0013 25.68 20.3653 25.68 20.664 25.68C20.9813 25.68 21.2333 25.6707 21.42 25.652L22.484 23.888C23.4173 22.3387 24.388 20.8733 25.396 19.492C26.4227 18.092 27.4867 16.776 28.588 15.544C31.0893 12.7813 33.2267 11.0827 35 10.448C35.056 10.4293 35.1213 10.42 35.196 10.42C35.308 10.42 35.364 10.4947 35.364 10.644C35.364 10.7 35.336 10.7467 35.28 10.784C34.7013 11.1013 33.992 11.6613 33.152 12.464C32.3307 13.248 31.3693 14.2747 30.268 15.544C27.9533 18.2133 25.984 20.9107 24.36 23.636L23.268 25.484C24.1267 25.372 24.7427 25.1573 25.116 24.84C25.1907 24.784 25.256 24.812 25.312 24.924C25.368 25.0547 25.3587 25.148 25.284 25.204C24.724 25.6333 23.9307 25.9413 22.904 26.128C21.5973 28.5547 20.944 30.2627 20.944 31.252C20.944 31.8867 21.2147 32.204 21.756 32.204C22.1293 32.204 22.5587 32.0733 23.044 31.812C23.548 31.5693 23.9493 31.2893 24.248 30.972C24.2853 30.9347 24.3133 30.916 24.332 30.916C24.388 30.916 24.416 30.972 24.416 31.084C24.3973 31.2147 24.3507 31.3173 24.276 31.392C24.052 31.616 23.7533 31.84 23.38 32.064C23.0067 32.288 22.6147 32.4747 22.204 32.624C21.812 32.7733 21.4667 32.848 21.168 32.848ZM27.2768 36.74C26.6795 36.74 26.1568 36.488 25.7088 35.984C25.2608 35.4613 25.0461 34.8827 25.0648 34.248C25.2888 34.528 25.5875 34.8547 25.9608 35.228C26.4461 35.6947 26.9221 35.928 27.3888 35.928C28.4528 35.928 29.6008 35.0787 30.8328 33.38C31.2621 32.7827 31.7008 32.0827 32.1488 31.28C32.6155 30.496 33.0541 29.6187 33.4648 28.648L34.5288 26.072L30.4128 29.292C29.1435 30.2813 28.1261 30.776 27.3608 30.776C26.9501 30.776 26.6235 30.6267 26.3808 30.328C26.1381 30.0293 26.0168 29.7213 26.0168 29.404C26.0168 28.6013 26.7075 27.2853 28.0888 25.456C29.4701 23.608 30.5061 22.684 31.1968 22.684C31.7755 22.684 32.0648 22.8987 32.0648 23.328C32.0648 23.496 31.2341 24.4667 29.5728 26.24C27.9301 27.9947 27.1088 29.18 27.1088 29.796C27.1088 30.0387 27.2675 30.16 27.5848 30.16C28.1821 30.16 29.4795 29.3853 31.4768 27.836C32.2981 27.1827 33.0261 26.5853 33.6608 26.044C34.2955 25.5027 34.8275 25.0173 35.2568 24.588C35.4061 24.4013 35.5555 24.224 35.7048 24.056C35.8541 23.8693 35.9941 23.6827 36.1248 23.496C36.4795 23.0853 36.8341 22.88 37.1888 22.88C37.6928 22.88 37.9448 23.0853 37.9448 23.496C37.9448 23.5707 37.5528 24.1867 36.7688 25.344C36.3581 25.9787 36.0315 26.4733 35.7888 26.828C35.5461 27.164 35.4061 27.3787 35.3688 27.472C34.7901 28.592 33.9035 30.2253 32.7088 32.372C30.8981 35.284 29.0875 36.74 27.2768 36.74ZM35.3721 36.292C34.5881 35.8627 34.1961 35.0507 34.1961 33.856C34.1961 32.568 35.2508 30.3653 37.3601 27.248C39.3761 24.2427 40.7761 22.6187 41.5601 22.376C41.6348 22.3573 41.7001 22.348 41.7561 22.348C41.8121 22.3293 41.8681 22.32 41.9241 22.32C42.2414 22.32 42.4001 22.6653 42.4001 23.356C42.5308 23.2253 42.7548 23.104 43.0721 22.992C43.4081 22.8613 43.7441 22.7587 44.0801 22.684C44.4348 22.6093 44.6961 22.5627 44.8641 22.544C45.6294 22.5067 46.2641 22.6933 46.7681 23.104C47.2908 23.496 47.5521 24.0187 47.5521 24.672C47.5521 26.184 46.6468 27.6493 44.8361 29.068C43.1934 30.356 41.7374 31 40.4681 31C39.6281 31 39.0494 30.9533 38.7321 30.86C38.2841 30.7293 37.8268 30.384 37.3601 29.824C37.1548 29.992 36.9308 30.2813 36.6881 30.692C36.4454 31.084 36.2214 31.5133 36.0161 31.98C35.7921 32.4653 35.6148 32.9413 35.4841 33.408C35.3348 33.8747 35.2601 34.2667 35.2601 34.584C35.2601 34.9013 35.3254 35.1627 35.4561 35.368C35.5681 35.592 35.6801 35.7973 35.7921 35.984C35.7921 36.0027 35.8014 36.012 35.8201 36.012C35.8201 36.0307 35.8201 36.04 35.8201 36.04C35.8201 36.1333 35.7734 36.208 35.6801 36.264C35.5681 36.3387 35.4654 36.348 35.3721 36.292ZM40.1041 30.216C41.1494 30.216 42.3534 29.684 43.7161 28.62C45.3214 27.3507 46.1241 25.9413 46.1241 24.392C46.1241 23.6827 45.6854 23.328 44.8081 23.328C44.0054 23.328 43.2588 23.5053 42.5681 23.86C42.3814 23.9347 42.0734 24.1773 41.6441 24.588C41.2334 24.9987 40.6828 25.5587 39.9921 26.268C38.5174 27.7987 37.7801 28.7787 37.7801 29.208C37.7801 29.544 38.0881 29.8147 38.7041 30.02C39.1148 30.1507 39.5814 30.216 40.1041 30.216ZM48.9788 31.364C48.3814 31.364 47.8401 31.1773 47.3548 30.804C46.8694 30.412 46.6268 29.8987 46.6268 29.264C46.6268 27.9387 47.4388 26.4267 49.0628 24.728C50.7241 23.0107 52.2081 22.152 53.5148 22.152C53.9441 22.152 54.2894 22.2733 54.5508 22.516C54.8308 22.74 54.9708 23.02 54.9708 23.356C54.9708 24.4013 54.1401 25.428 52.4788 26.436C51.0041 27.332 49.7628 27.78 48.7548 27.78C48.6054 27.78 48.4748 27.7613 48.3628 27.724C48.0828 28.228 47.9428 28.76 47.9428 29.32C47.9428 30.2907 48.4001 30.776 49.3148 30.776C50.2481 30.776 51.4521 30.1507 52.9268 28.9C54.0654 27.9853 55.0361 27.0147 55.8388 25.988C56.0068 25.764 56.1561 25.652 56.2868 25.652C56.3988 25.652 56.4548 25.708 56.4548 25.82C56.4548 25.932 56.3801 26.0907 56.2308 26.296C55.7081 26.9867 55.1481 27.6213 54.5508 28.2C53.9534 28.7787 53.3094 29.3107 52.6188 29.796C51.1814 30.8413 49.9681 31.364 48.9788 31.364ZM49.1468 27.164C49.8561 27.164 50.7801 26.8093 51.9188 26.1C52.2921 25.8387 52.6561 25.5493 53.0108 25.232C53.3841 24.896 53.6828 24.56 53.9068 24.224C54.1494 23.888 54.2708 23.5893 54.2708 23.328C54.2708 23.0853 54.0748 22.964 53.6828 22.964C53.1228 22.964 52.3388 23.384 51.3308 24.224C50.8454 24.6347 50.3788 25.0827 49.9308 25.568C49.4828 26.0533 49.1001 26.5667 48.7828 27.108C48.8948 27.1453 49.0161 27.164 49.1468 27.164ZM60.4542 31.14C59.6515 31.14 59.1009 30.9347 58.8022 30.524C58.5035 30.0947 58.3542 29.5253 58.3542 28.816C58.3542 28.032 58.5969 27.0987 59.0822 26.016C59.2689 25.5867 59.4649 25.204 59.6702 24.868C59.8755 24.5133 60.0902 24.1867 60.3142 23.888C60.2395 23.9067 60.1742 23.916 60.1182 23.916C60.0622 23.916 60.0062 23.916 59.9502 23.916C59.5022 23.916 59.1289 23.5987 58.8302 22.964L56.7582 25.652C55.6569 27.0893 54.9849 27.808 54.7422 27.808C54.6489 27.808 54.6022 27.7707 54.6022 27.696C54.6022 27.6027 54.6489 27.4813 54.7422 27.332C54.7982 27.22 54.9102 27.0707 55.0782 26.884C55.7875 26.0627 56.4409 25.2507 57.0382 24.448C57.6355 23.6453 58.1302 22.8613 58.5222 22.096C58.9515 20.472 59.4929 19.66 60.1462 19.66C60.5755 19.66 60.7902 19.856 60.7902 20.248C60.7902 20.6027 60.5569 21.0693 60.0902 21.648C59.6422 22.2267 59.4182 22.5253 59.4182 22.544C59.4182 22.936 59.7075 23.132 60.2862 23.132C60.6222 23.132 60.9955 23.0107 61.4062 22.768L62.1342 22.32C62.1715 22.3013 62.2275 22.292 62.3022 22.292C62.5262 22.292 62.7222 22.3853 62.8902 22.572C63.0582 22.7587 63.1142 22.9267 63.0582 23.076L61.1262 25.512C59.9315 27.0427 59.3342 28.2747 59.3342 29.208C59.3342 30.048 59.7449 30.468 60.5662 30.468C61.1262 30.468 61.7235 30.3 62.3582 29.964C63.0115 29.628 63.6369 29.2173 64.2342 28.732C64.8502 28.228 65.3635 27.7427 65.7742 27.276L66.4462 26.492C66.4835 26.4547 66.5302 26.408 66.5862 26.352C66.6422 26.296 66.6889 26.268 66.7262 26.268C66.8569 26.268 66.9222 26.3333 66.9222 26.464C66.9222 26.5013 66.9035 26.5667 66.8662 26.66C66.8289 26.7533 66.7635 26.856 66.6702 26.968L65.7742 27.976C65.3449 28.4613 64.8129 28.956 64.1782 29.46C63.5622 29.9453 62.9182 30.3467 62.2462 30.664C61.5929 30.9813 60.9955 31.14 60.4542 31.14ZM67.8897 31.364C67.2924 31.364 66.7511 31.1773 66.2657 30.804C65.7804 30.412 65.5377 29.8987 65.5377 29.264C65.5377 27.9387 66.3497 26.4267 67.9737 24.728C69.6351 23.0107 71.1191 22.152 72.4257 22.152C72.8737 22.152 73.2284 22.2733 73.4897 22.516C73.7511 22.74 73.8817 23.02 73.8817 23.356C73.8817 23.8227 73.7697 24.252 73.5457 24.644C73.2844 25.1293 72.9111 25.372 72.4257 25.372C71.9404 25.372 71.6977 25.2227 71.6977 24.924C71.6977 24.7187 71.8191 24.4107 72.0617 24C72.3231 23.5707 72.4537 23.3467 72.4537 23.328C72.4537 23.2907 72.4257 23.272 72.3697 23.272C71.8471 23.328 71.1191 23.7107 70.1857 24.42C69.7751 24.7373 69.4111 25.036 69.0937 25.316C68.7951 25.596 68.5524 25.8667 68.3657 26.128L67.2737 27.724C67.1617 27.892 67.0404 28.1813 66.9097 28.592C66.7977 29.0027 66.7417 29.3107 66.7417 29.516C66.7417 29.8893 66.8631 30.1973 67.1057 30.44C67.3671 30.6827 67.6937 30.804 68.0857 30.804C69.0191 30.804 70.2511 30.1973 71.7817 28.984C73.0137 28.0133 74.0031 27.0333 74.7497 26.044C74.8431 25.932 74.9551 25.876 75.0857 25.876C75.2164 25.876 75.2817 25.9133 75.2817 25.988C75.2817 26.044 75.2351 26.1373 75.1417 26.268C74.1151 27.6307 72.9111 28.8067 71.5297 29.796C70.0551 30.8413 68.8417 31.364 67.8897 31.364ZM75.1194 31.364C74.5221 31.364 73.9807 31.1773 73.4954 30.804C73.0101 30.412 72.7674 29.8987 72.7674 29.264C72.7674 27.9387 73.5794 26.4267 75.2034 24.728C76.8647 23.0107 78.3487 22.152 79.6554 22.152C80.0847 22.152 80.4301 22.2733 80.6914 22.516C80.9714 22.74 81.1114 23.02 81.1114 23.356C81.1114 24.4013 80.2807 25.428 78.6194 26.436C77.1447 27.332 75.9034 27.78 74.8954 27.78C74.7461 27.78 74.6154 27.7613 74.5034 27.724C74.2234 28.228 74.0834 28.76 74.0834 29.32C74.0834 30.2907 74.5407 30.776 75.4554 30.776C76.3887 30.776 77.5927 30.1507 79.0674 28.9C80.2061 27.9853 81.1767 27.0147 81.9794 25.988C82.1474 25.764 82.2967 25.652 82.4274 25.652C82.5394 25.652 82.5954 25.708 82.5954 25.82C82.5954 25.932 82.5207 26.0907 82.3714 26.296C81.8487 26.9867 81.2887 27.6213 80.6914 28.2C80.0941 28.7787 79.4501 29.3107 78.7594 29.796C77.3221 30.8413 76.1087 31.364 75.1194 31.364ZM75.2874 27.164C75.9967 27.164 76.9207 26.8093 78.0594 26.1C78.4327 25.8387 78.7967 25.5493 79.1514 25.232C79.5247 24.896 79.8234 24.56 80.0474 24.224C80.2901 23.888 80.4114 23.5893 80.4114 23.328C80.4114 23.0853 80.2154 22.964 79.8234 22.964C79.2634 22.964 78.4794 23.384 77.4714 24.224C76.9861 24.6347 76.5194 25.0827 76.0714 25.568C75.6234 26.0533 75.2407 26.5667 74.9234 27.108C75.0354 27.1453 75.1567 27.164 75.2874 27.164ZM104.675 31.056C104.171 31.056 103.816 30.916 103.611 30.636C103.406 30.3373 103.303 29.9733 103.303 29.544C103.303 28.4613 103.676 27.304 104.423 26.072L106.215 23.16C104.946 24.0933 103.686 25.26 102.435 26.66C102.099 27.0333 101.716 27.472 101.287 27.976C100.876 28.48 100.419 29.0587 99.9152 29.712C99.2432 30.5893 98.8418 31.028 98.7112 31.028C98.4498 31.028 98.2352 30.916 98.0672 30.692C97.8992 30.4493 97.8152 30.2347 97.8152 30.048C97.8152 29.8987 97.8618 29.628 97.9552 29.236C98.0485 28.8253 98.1605 28.4707 98.2912 28.172C98.4218 27.8547 98.5525 27.5467 98.6832 27.248C98.8325 26.9307 98.9725 26.6227 99.1032 26.324L97.4232 28.088C97.3858 28.1253 97.2738 28.2373 97.0872 28.424C96.9005 28.6107 96.7512 28.704 96.6392 28.704C96.5458 28.704 96.4992 28.6387 96.4992 28.508C96.4992 28.4707 96.5178 28.424 96.5552 28.368C96.5738 28.2933 96.6298 28.2093 96.7232 28.116C97.0032 27.836 97.2925 27.5373 97.5912 27.22C97.8898 26.9027 98.1978 26.5387 98.5152 26.128C98.6832 25.9227 98.9352 25.6147 99.2712 25.204C99.6072 24.7747 99.9712 24.3173 100.363 23.832C100.774 23.3467 101.156 22.8987 101.511 22.488C101.604 22.3573 101.707 22.2733 101.819 22.236C101.931 22.18 102.006 22.152 102.043 22.152C102.547 22.152 102.799 22.348 102.799 22.74C102.799 22.852 102.771 22.964 102.715 23.076C101.035 25.3907 100.027 27.1547 99.6912 28.368C101.856 26.2027 103.592 24.5787 104.899 23.496C106.224 22.3947 107.167 21.844 107.727 21.844C108.026 21.844 108.25 21.8907 108.399 21.984C108.567 22.0773 108.651 22.2547 108.651 22.516C108.651 22.6093 108.642 22.684 108.623 22.74C108.567 22.8707 108.184 23.3933 107.475 24.308C107.046 24.8307 106.663 25.3067 106.327 25.736C106.01 26.1653 105.748 26.5387 105.543 26.856C105.207 27.3787 104.955 27.8733 104.787 28.34C104.619 28.788 104.535 29.1707 104.535 29.488C104.535 29.6187 104.554 29.7773 104.591 29.964C104.628 30.1507 104.74 30.244 104.927 30.244C105.356 30.244 106.028 29.8707 106.943 29.124C107.372 28.7507 107.774 28.3773 108.147 28.004C108.52 27.612 108.875 27.2293 109.211 26.856C109.286 26.7813 109.407 26.6413 109.575 26.436C109.743 26.212 109.846 26.1 109.883 26.1C109.958 26.1 109.995 26.1747 109.995 26.324C109.995 26.3987 109.948 26.5293 109.855 26.716C109.78 26.884 109.696 27.0147 109.603 27.108C109.398 27.3507 109.09 27.6867 108.679 28.116C108.287 28.5453 107.839 28.984 107.335 29.432C106.85 29.88 106.374 30.2627 105.907 30.58C105.44 30.8973 105.03 31.056 104.675 31.056ZM114.568 31.336C113.952 31.336 113.401 31.1587 112.916 30.804C112.449 30.4493 112.039 30.0013 111.684 29.46C111.348 28.9187 111.059 28.3773 110.816 27.836C110.685 28.004 110.545 28.2187 110.396 28.48C110.265 28.7413 110.107 29.0493 109.92 29.404L109.052 31.14C108.38 30.8787 108.044 30.524 108.044 30.076C108.044 29.2733 109.267 27.0427 111.712 23.384C114.083 19.8373 115.716 17.7467 116.612 17.112C116.705 17.056 116.855 17.028 117.06 17.028C117.639 17.028 117.928 17.1773 117.928 17.476C117.928 17.532 117.797 17.7373 117.536 18.092C117.275 18.428 116.948 18.8387 116.556 19.324C116.164 19.8093 115.763 20.304 115.352 20.808C114.96 21.2933 114.615 21.7227 114.316 22.096C114.017 22.4507 113.849 22.6747 113.812 22.768C115.511 21.8907 116.864 21.452 117.872 21.452C118.264 21.452 118.619 21.564 118.936 21.788C119.272 22.012 119.533 22.2827 119.72 22.6C119.907 22.9173 119.981 23.2253 119.944 23.524C119.795 24.588 119.048 25.4653 117.704 26.156C116.621 26.7347 115.632 27.024 114.736 27.024C113.765 27.024 113.093 26.9027 112.72 26.66C112.608 26.6413 112.515 26.6693 112.44 26.744C112.384 26.8 112.375 26.8933 112.412 27.024C112.935 29.3387 113.803 30.496 115.016 30.496C115.613 30.496 116.407 30.1507 117.396 29.46C118.404 28.7693 119.468 27.7613 120.588 26.436C120.719 26.3053 120.84 26.24 120.952 26.24C121.045 26.24 121.092 26.296 121.092 26.408C121.092 26.5013 121.027 26.6413 120.896 26.828C120.355 27.4813 119.72 28.1627 118.992 28.872C118.283 29.5627 117.545 30.1507 116.78 30.636C116.015 31.1027 115.277 31.336 114.568 31.336ZM112.944 26.296C113.784 26.296 114.885 25.9507 116.248 25.26C117.816 24.476 118.6 23.6453 118.6 22.768C118.6 22.6187 118.516 22.4693 118.348 22.32C118.18 22.1707 118.003 22.096 117.816 22.096C116.808 22.096 115.632 22.488 114.288 23.272C112.813 24.168 111.917 25.148 111.6 26.212C111.805 26.212 112.067 26.2307 112.384 26.268C112.72 26.2867 112.907 26.296 112.944 26.296Z"
            fill="white" />
    </g>
    <defs>
        <clipPath id="clip0_9_5987">
            <rect width="123" height="43" fill="#ffffff" />
        </clipPath>
    </defs>
</svg>