<svg width="34" height="34" viewBox="0 0 34 34" fill="none" xmlns="http://www.w3.org/2000/svg">
    <path d="M20.1875 29.75C20.7743 29.75 21.25 29.2743 21.25 28.6875C21.25 28.1007 20.7743 27.625 20.1875 27.625C19.6007 27.625 19.125 28.1007 19.125 28.6875C19.125 29.2743 19.6007 29.75 20.1875 29.75Z" fill="currentColor"/>
    <path d="M30.8125 32.9375H17C15.8281 32.9375 14.875 31.9844 14.875 30.8125V26.5625C14.875 25.3906 15.8281 24.4375 17 24.4375H30.8125C31.9844 24.4375 32.9375 25.3906 32.9375 26.5625V30.8125C32.9375 31.9844 31.9844 32.9375 30.8125 32.9375ZM17 26.5625V30.8125H30.8125V26.5625H17ZM30.8125 22.3125H17C15.8281 22.3125 14.875 21.3594 14.875 20.1875V15.9375C14.875 14.7656 15.8281 13.8125 17 13.8125H30.8125C31.9844 13.8125 32.9375 14.7656 32.9375 15.9375V20.1875C32.9375 21.3594 31.9844 22.3125 30.8125 22.3125ZM17 15.9375V20.1875H30.8125V15.9375H17Z" fill="currentColor"/>
    <path d="M12.75 29.0062C7.80619 27.251 4.25 22.5388 4.25 17C4.25 9.96944 9.96944 4.25 17 4.25C22.1329 4.25 26.5561 7.30575 28.5759 11.6875H30.8773C28.7321 6.10512 23.3293 2.125 17 2.125C8.7975 2.125 2.125 8.7975 2.125 17C2.125 23.7256 6.61406 29.4153 12.75 31.2481V29.0062Z" fill="currentColor"/>
    </svg>
    