<svg width="34" height="34" viewBox="0 0 34 34" fill="none" xmlns="http://www.w3.org/2000/svg">
    <path d="M30.3309 16.405L17.5809 3.65504C17.0709 3.14504 16.3625 2.83337 15.5834 2.83337H5.66671C4.10837 2.83337 2.83337 4.10837 2.83337 5.66671V15.5834C2.83337 16.3625 3.14504 17.0709 3.66921 17.595L16.4192 30.345C16.9292 30.855 17.6375 31.1667 18.4167 31.1667C19.1959 31.1667 19.9042 30.855 20.4142 30.3309L30.3309 20.4142C30.855 19.9042 31.1667 19.1959 31.1667 18.4167C31.1667 17.6375 30.8409 16.915 30.3309 16.405ZM18.4167 28.3475L5.66671 15.5834V5.66671H15.5834V5.65254L28.3334 18.4025L18.4167 28.3475Z" fill="currentColor"/>
    <path d="M9.20837 11.3334C10.382 11.3334 11.3334 10.382 11.3334 9.20837C11.3334 8.03477 10.382 7.08337 9.20837 7.08337C8.03477 7.08337 7.08337 8.03477 7.08337 9.20837C7.08337 10.382 8.03477 11.3334 9.20837 11.3334Z" fill="currentColor"/>
    </svg>
    