<svg width="40" height="34" viewBox="0 0 32 34" fill="none" xmlns="http://www.w3.org/2000/svg">
    <path
        d="M12.875 25.5166V15.5391L2.25 10.2266V24.8359L11.2812 29.3682L10.7666 31.4766L0.125 26.1641V7.83594L13.9375 0.946289L27.75 7.83594V12.3184C26.9753 12.4401 26.2669 12.6891 25.625 13.0654V10.2266L15 15.5391V23.3916L12.875 25.5166ZM10.5176 5.01367L20.2129 10.5586L24.3135 8.5L13.9375 3.30371L10.5176 5.01367ZM13.9375 13.6963L17.9219 11.7041L8.22656 6.15918L3.56152 8.5L13.9375 13.6963ZM28.6797 14.875C29.1445 14.875 29.5762 14.958 29.9746 15.124C30.373 15.29 30.7272 15.5169 31.0371 15.8047C31.347 16.0924 31.5794 16.4411 31.7344 16.8506C31.8893 17.2601 31.9779 17.6973 32 18.1621C32 18.5938 31.917 19.0143 31.751 19.4238C31.585 19.8333 31.347 20.193 31.0371 20.5029L19.1338 32.4062L12.875 33.9668L14.4355 27.708L26.3389 15.8213C26.6598 15.5003 27.0195 15.2624 27.418 15.1074C27.8164 14.9525 28.237 14.875 28.6797 14.875ZM29.5264 19.0088C29.7588 18.7764 29.875 18.4941 29.875 18.1621C29.875 17.819 29.7643 17.5423 29.543 17.332C29.3216 17.1217 29.0339 17.0111 28.6797 17C28.5247 17 28.3753 17.0221 28.2314 17.0664C28.0876 17.1107 27.9603 17.1937 27.8496 17.3154L16.3613 28.8037L15.7969 31.0449L18.0381 30.4805L29.5264 19.0088Z"
        fill="currentColor" />
</svg>
    