<svg width="34" height="34" viewBox="0 0 34 34" fill="none" xmlns="http://www.w3.org/2000/svg">
    <path d="M11.6874 3.18755C16.3943 3.18755 20.1874 6.98068 20.1874 11.6876C20.1874 11.9372 20.1481 12.2751 20.1205 12.5843L29.2186 21.6814C29.7156 22.1752 30.11 22.7624 30.3792 23.4091C30.6483 24.0559 30.7869 24.7496 30.7869 25.4501C30.7869 26.1507 30.6483 26.8443 30.3792 27.4911C30.11 28.1379 29.7156 28.725 29.2186 29.2188C28.7249 29.7158 28.1377 30.1102 27.4909 30.3793C26.8441 30.6485 26.1505 30.787 25.45 30.787C24.7494 30.787 24.0558 30.6485 23.409 30.3793C22.7622 30.1102 22.175 29.7158 21.6813 29.2188L12.5841 20.1206C12.276 20.1482 11.936 20.1876 11.6874 20.1876C6.98052 20.1876 3.1874 16.3944 3.1874 11.6876C3.18179 10.318 3.52476 8.96952 4.18402 7.76905L4.84809 6.5408L5.84365 7.53743L10.4262 12.0849L12.0858 10.4253L7.53833 5.8438L6.53959 4.84718L7.7689 4.18312C8.96982 3.52514 10.318 3.1826 11.6874 3.18755ZM11.6874 5.31255C11.171 5.31255 10.7864 5.53568 10.3274 5.64512L14.3436 9.66137L15.1086 10.4264L14.3436 11.1563L11.1561 14.3438L10.4251 15.1088L9.66227 14.3438L5.6439 10.3276C5.53446 10.7866 5.3124 11.1712 5.3124 11.6876C5.3124 15.2682 8.10677 18.0626 11.6874 18.0626C12.1124 18.0626 12.4524 18.0626 12.718 17.9956L13.2811 17.8299L13.7125 18.2623L23.1762 27.726C24.4831 29.0329 26.4168 29.0329 27.7237 27.726L27.7577 27.692C29.0327 26.3851 29.0221 24.4726 27.7258 23.1764L18.2621 13.7137L17.8297 13.2824L17.9976 12.7192C18.0613 12.4536 18.0635 12.1136 18.0635 11.6886C18.0635 8.10799 15.2691 5.31362 11.6885 5.31362L11.6874 5.31255Z" fill="currentColor"/>
    </svg>
    