<svg width="34" height="34" viewBox="0 0 34 34" fill="none" xmlns="http://www.w3.org/2000/svg">
    <path fill-rule="evenodd" clip-rule="evenodd" d="M4.25 4.25V24.0833H20.1075V22.6667H5.66667V5.66667H24.7917V7.16833H26.2083V4.25H4.25ZM26.2083 11.3333C26.2083 11.7091 26.0591 12.0694 25.7934 12.3351C25.5277 12.6007 25.1674 12.75 24.7917 12.75C24.4159 12.75 24.0556 12.6007 23.7899 12.3351C23.5243 12.0694 23.375 11.7091 23.375 11.3333C23.375 10.9576 23.5243 10.5973 23.7899 10.3316C24.0556 10.0659 24.4159 9.91667 24.7917 9.91667C25.1674 9.91667 25.5277 10.0659 25.7934 10.3316C26.0591 10.5973 26.2083 10.9576 26.2083 11.3333ZM27.625 11.3333C27.625 12.0848 27.3265 12.8054 26.7951 13.3368C26.2638 13.8682 25.5431 14.1667 24.7917 14.1667C24.0402 14.1667 23.3196 13.8682 22.7882 13.3368C22.2568 12.8054 21.9583 12.0848 21.9583 11.3333C21.9583 10.5819 22.2568 9.86122 22.7882 9.32986C23.3196 8.79851 24.0402 8.5 24.7917 8.5C25.5431 8.5 26.2638 8.79851 26.7951 9.32986C27.3265 9.86122 27.625 10.5819 27.625 11.3333Z" fill="currentColor"/>
    <path fill-rule="evenodd" clip-rule="evenodd" d="M21.3158 15.4629C21.7108 15.0858 22.2359 14.8753 22.782 14.875H25.6734C26.7104 14.875 27.6759 15.2277 28.4197 15.9304C29.1351 16.6062 29.5077 17.4725 29.6599 18.2934C29.8994 19.584 29.6514 20.9943 29.0416 22.2445V27.9792C29.0416 28.4235 28.8745 28.8517 28.5735 29.1786C28.2726 29.5056 27.8597 29.7074 27.4168 29.744C26.9739 29.7807 26.5335 29.6495 26.1828 29.3765C25.8322 29.1035 25.597 28.7086 25.524 28.2703L25.1457 26.0008L24.7675 28.2703C24.6944 28.7086 24.4593 29.1035 24.1086 29.3765C23.758 29.6495 23.3175 29.7807 22.8747 29.744C22.4318 29.7074 22.0189 29.5056 21.7179 29.1786C21.4169 28.8517 21.2499 28.4235 21.2499 27.9792V21.3159C20.9269 21.5024 20.5604 21.6006 20.1874 21.6006H16.5735C16.0099 21.6006 15.4694 21.3767 15.0709 20.9782C14.6724 20.5797 14.4485 20.0392 14.4485 19.4756C14.4485 18.912 14.6724 18.3715 15.0709 17.973C15.4694 17.5745 16.0099 17.3506 16.5735 17.3506H19.336L21.3158 15.4629ZM22.6666 23.7115V27.9792C22.6668 28.0679 22.7003 28.1533 22.7605 28.2185C22.8207 28.2836 22.9032 28.3239 22.9916 28.3312C23.08 28.3385 23.1679 28.3123 23.238 28.2579C23.3081 28.2035 23.3552 28.1247 23.3699 28.0373L24.1087 23.6059C24.1362 23.4405 24.2215 23.2902 24.3494 23.1818C24.4773 23.0734 24.6395 23.0138 24.8072 23.0138H25.4843C25.652 23.0138 25.8142 23.0734 25.9421 23.1818C26.07 23.2902 26.1552 23.4405 26.1827 23.6059L26.9215 28.0373C26.9363 28.1247 26.9834 28.2035 27.0535 28.2579C27.1235 28.3123 27.2115 28.3385 27.2999 28.3312C27.3883 28.3239 27.4708 28.2836 27.5309 28.2185C27.5911 28.1533 27.6247 28.0679 27.6249 27.9792V22.0759C27.6249 21.9625 27.6521 21.8508 27.7042 21.7501C28.2511 20.6947 28.4501 19.538 28.2674 18.552C28.1562 17.9527 27.8962 17.3846 27.4471 16.9603C26.9888 16.5275 26.3811 16.2917 25.6734 16.2917H22.7827C22.6007 16.2917 22.425 16.3618 22.2933 16.4872L20.1088 18.5711C19.9771 18.6969 19.8021 18.7671 19.62 18.7673H16.5735C16.3856 18.7673 16.2055 18.8419 16.0726 18.9748C15.9398 19.1076 15.8652 19.2878 15.8652 19.4756C15.8652 19.6635 15.9398 19.8437 16.0726 19.9765C16.2055 20.1093 16.3856 20.184 16.5735 20.184H20.1874C20.3695 20.1838 20.5445 20.1135 20.6762 19.9878L21.4695 19.2312C21.5699 19.1356 21.6961 19.0715 21.8326 19.0469C21.969 19.0223 22.1097 19.0382 22.2372 19.0928C22.3646 19.1475 22.4733 19.2383 22.5496 19.354C22.6259 19.4698 22.6666 19.6054 22.6666 19.7441V23.7122V23.7115Z" fill="currentColor"/>
    </svg>
    