<svg width="34" height="34" viewBox="0 0 34 34" fill="none" xmlns="http://www.w3.org/2000/svg">
    <path d="M8.5 14.875H14.875V17H8.5V14.875ZM8.5 6.375H21.25V8.5H8.5V6.375ZM8.5 10.625H21.25V12.75H8.5V10.625ZM8.5 25.5H14.875V27.625H8.5V25.5ZM31.875 25.5V23.375H29.6427C29.5057 22.7099 29.2416 22.0775 28.8649 21.5124L30.4481 19.9293L28.9457 18.4269L27.3626 20.0101C26.7975 19.6334 26.1651 19.3693 25.5 19.2323V17H23.375V19.2323C22.7099 19.3693 22.0775 19.6334 21.5124 20.0101L19.9293 18.4269L18.4269 19.9293L20.0101 21.5124C19.6334 22.0775 19.3693 22.7099 19.2323 23.375H17V25.5H19.2323C19.3693 26.1651 19.6334 26.7975 20.0101 27.3626L18.4269 28.9457L19.9293 30.4481L21.5124 28.8649C22.0775 29.2416 22.7099 29.5057 23.375 29.6427V31.875H25.5V29.6427C26.1651 29.5057 26.7975 29.2416 27.3626 28.8649L28.9457 30.4481L30.4481 28.9457L28.8649 27.3626C29.2416 26.7975 29.5057 26.1651 29.6427 25.5H31.875ZM24.4375 27.625C23.8071 27.625 23.1908 27.4381 22.6666 27.0878C22.1424 26.7376 21.7339 26.2397 21.4926 25.6573C21.2514 25.0749 21.1883 24.434 21.3112 23.8156C21.4342 23.1973 21.7378 22.6294 22.1836 22.1836C22.6294 21.7378 23.1973 21.4342 23.8156 21.3112C24.434 21.1883 25.0749 21.2514 25.6573 21.4926C26.2397 21.7339 26.7376 22.1424 27.0878 22.6666C27.4381 23.1908 27.625 23.8071 27.625 24.4375C27.6242 25.2826 27.2881 26.0929 26.6905 26.6905C26.0929 27.2881 25.2826 27.6242 24.4375 27.625Z" fill="currentColor"/>
    <path d="M14.875 31.875H6.375C5.81159 31.8744 5.27141 31.6504 4.87302 31.252C4.47463 30.8536 4.25056 30.3134 4.25 29.75V4.25C4.25056 3.68659 4.47463 3.14641 4.87302 2.74802C5.27141 2.34963 5.81159 2.12556 6.375 2.125H23.375C23.9384 2.12556 24.4786 2.34963 24.877 2.74802C25.2754 3.14641 25.4994 3.68659 25.5 4.25V14.875H23.375V4.25H6.375V29.75H14.875V31.875Z" fill="currentColor"/>
    </svg>
    