<svg width="34" height="34" viewBox="0 0 34 34" fill="none" xmlns="http://www.w3.org/2000/svg">
    <path d="M22.8438 8.76562C22.8438 8.61953 22.7242 8.5 22.5781 8.5H9.82813C9.68203 8.5 9.5625 8.61953 9.5625 8.76562V10.3594C9.5625 10.5055 9.68203 10.625 9.82813 10.625H22.5781C22.7242 10.625 22.8438 10.5055 22.8438 10.3594V8.76562ZM22.5781 13.2812H9.82813C9.68203 13.2812 9.5625 13.4008 9.5625 13.5469V15.1406C9.5625 15.2867 9.68203 15.4062 9.82813 15.4062H22.5781C22.7242 15.4062 22.8438 15.2867 22.8438 15.1406V13.5469C22.8438 13.4008 22.7242 13.2812 22.5781 13.2812ZM15.9375 18.0625H9.82813C9.68203 18.0625 9.5625 18.182 9.5625 18.3281V19.9219C9.5625 20.068 9.68203 20.1875 9.82813 20.1875H15.9375C16.0836 20.1875 16.2031 20.068 16.2031 19.9219V18.3281C16.2031 18.182 16.0836 18.0625 15.9375 18.0625ZM14.3438 28.2891H6.90625V4.91406H25.5V16.3359C25.5 16.482 25.6195 16.6016 25.7656 16.6016H27.625C27.7711 16.6016 27.8906 16.482 27.8906 16.3359V3.58594C27.8906 2.99824 27.4158 2.52344 26.8281 2.52344H5.57813C4.99043 2.52344 4.51562 2.99824 4.51562 3.58594V29.6172C4.51562 30.2049 4.99043 30.6797 5.57813 30.6797H14.3438C14.4898 30.6797 14.6094 30.5602 14.6094 30.4141V28.5547C14.6094 28.4086 14.4898 28.2891 14.3438 28.2891ZM26.1906 25.8187C27.1535 24.9455 27.7578 23.6838 27.7578 22.2793C27.7578 19.6396 25.6162 17.498 22.9766 17.498C20.3369 17.498 18.1953 19.6396 18.1953 22.2793C18.1953 23.6838 18.7996 24.9455 19.7625 25.8187C17.8699 26.8979 16.5684 28.8967 16.4688 31.201C16.4621 31.3504 16.585 31.4766 16.7344 31.4766H18.3314C18.4709 31.4766 18.5871 31.367 18.5971 31.2242C18.7266 28.9266 20.6424 27.0938 22.9766 27.0938C25.3107 27.0938 27.2266 28.9266 27.3561 31.2242C27.3627 31.3637 27.4789 31.4766 27.6217 31.4766H29.2188C29.3715 31.4766 29.491 31.3504 29.4844 31.201C29.3881 28.8934 28.0832 26.8979 26.1906 25.8187ZM22.9766 19.623C24.4441 19.623 25.6328 20.8117 25.6328 22.2793C25.6328 23.7469 24.4441 24.9355 22.9766 24.9355C21.509 24.9355 20.3203 23.7469 20.3203 22.2793C20.3203 20.8117 21.509 19.623 22.9766 19.623Z" fill="currentColor"/>
    </svg>
    