<?xml version="1.0" encoding="UTF-8" standalone="no"?>
<!DOCTYPE svg PUBLIC "-//W3C//DTD SVG 1.1//EN" "http://www.w3.org/Graphics/SVG/1.1/DTD/svg11.dtd">
<svg xmlns="http://www.w3.org/2000/svg" version="1.1" viewBox="0.00 0.00 725.00 690.00">
<g stroke-width="2.00" fill="none" stroke-linecap="butt">
<path stroke="#8dadb4" vector-effect="non-scaling-stroke" d="
  M 211.32 233.72
  A 0.34 0.34 0.0 0 0 211.32 234.36
  L 378.09 302.04
  A 0.34 0.34 0.0 0 0 378.35 302.04
  L 545.13 234.36
  A 0.34 0.34 0.0 0 0 545.13 233.72
  L 378.35 166.05
  A 0.34 0.34 0.0 0 0 378.09 166.05
  L 211.32 233.72"
/>
<path stroke="#8dadb4" vector-effect="non-scaling-stroke" d="
  M 207.53 239.19
  A 0.32 0.32 0.0 0 0 207.04 239.46
  L 207.03 435.55
  A 0.32 0.32 0.0 0 0 207.18 435.82
  L 362.08 532.62
  A 0.32 0.32 0.0 0 0 362.57 532.35
  L 362.57 336.27
  A 0.32 0.32 0.0 0 0 362.42 336.00
  L 207.53 239.19"
/>
<path stroke="#8dadb4" vector-effect="non-scaling-stroke" d="
  M 395.40 336.02
  A 0.31 0.31 0.0 0 0 395.25 336.28
  L 395.25 532.39
  A 0.31 0.31 0.0 0 0 395.72 532.65
  L 550.60 435.85
  A 0.31 0.31 0.0 0 0 550.75 435.59
  L 550.75 239.48
  A 0.31 0.31 0.0 0 0 550.28 239.22
  L 395.40 336.02"
/>
</g>
<path fill="#1b5b68" d="
  M 643.61 337.57
  A 268.79 268.79 0.0 0 1 374.82 606.36
  A 268.79 268.79 0.0 0 1 106.03 337.57
  A 268.79 268.79 0.0 0 1 374.82 68.78
  A 268.79 268.79 0.0 0 1 643.61 337.57
  Z
  M 211.32 233.72
  A 0.34 0.34 0.0 0 0 211.32 234.36
  L 378.09 302.04
  A 0.34 0.34 0.0 0 0 378.35 302.04
  L 545.13 234.36
  A 0.34 0.34 0.0 0 0 545.13 233.72
  L 378.35 166.05
  A 0.34 0.34 0.0 0 0 378.09 166.05
  L 211.32 233.72
  Z
  M 207.53 239.19
  A 0.32 0.32 0.0 0 0 207.04 239.46
  L 207.03 435.55
  A 0.32 0.32 0.0 0 0 207.18 435.82
  L 362.08 532.62
  A 0.32 0.32 0.0 0 0 362.57 532.35
  L 362.57 336.27
  A 0.32 0.32 0.0 0 0 362.42 336.00
  L 207.53 239.19
  Z
  M 395.40 336.02
  A 0.31 0.31 0.0 0 0 395.25 336.28
  L 395.25 532.39
  A 0.31 0.31 0.0 0 0 395.72 532.65
  L 550.60 435.85
  A 0.31 0.31 0.0 0 0 550.75 435.59
  L 550.75 239.48
  A 0.31 0.31 0.0 0 0 550.28 239.22
  L 395.40 336.02
  Z"
/>
<path fill="#ffffff" d="
  M 211.32 233.72
  L 378.09 166.05
  A 0.34 0.34 0.0 0 1 378.35 166.05
  L 545.13 233.72
  A 0.34 0.34 0.0 0 1 545.13 234.36
  L 378.35 302.04
  A 0.34 0.34 0.0 0 1 378.09 302.04
  L 211.32 234.36
  A 0.34 0.34 0.0 0 1 211.32 233.72
  Z"
/>
<path fill="#ffffff" d="
  M 207.53 239.19
  L 362.42 336.00
  A 0.32 0.32 0.0 0 1 362.57 336.27
  L 362.57 532.35
  A 0.32 0.32 0.0 0 1 362.08 532.62
  L 207.18 435.82
  A 0.32 0.32 0.0 0 1 207.03 435.55
  L 207.04 239.46
  A 0.32 0.32 0.0 0 1 207.53 239.19
  Z"
/>
<path fill="#ffffff" d="
  M 395.40 336.02
  L 550.28 239.22
  A 0.31 0.31 0.0 0 1 550.75 239.48
  L 550.75 435.59
  A 0.31 0.31 0.0 0 1 550.60 435.85
  L 395.72 532.65
  A 0.31 0.31 0.0 0 1 395.25 532.39
  L 395.25 336.28
  A 0.31 0.31 0.0 0 1 395.40 336.02
  Z"
/>
</svg>
